<svg xmlns="http://www.w3.org/2000/svg" width="150" height="130" viewBox="0 0 150 130"><g transform="translate(-310 -1999)"><rect width="150" height="130" transform="translate(310 1999)" fill="#fff"/><g transform="translate(-1200.387 1388.685)"><path d="M1589.545,720.559l-4-3a17.337,17.337,0,0,1-4.666,1.927l-.71,4.959h-7.383l-.712-4.954a17.494,17.494,0,0,1-4.661-1.931l-4.005,3-5.222-5.222,3-4a17.488,17.488,0,0,1-1.932-4.663l-4.954-.712v-7.384l4.958-.71a17.347,17.347,0,0,1,1.928-4.666l-3-4,3.336-3.337c.352.524.727,1.031,1.114,1.527l-1.985,1.986,2.8,3.738-.353.546a15.5,15.5,0,0,0-2.163,5.236l-.135.638-4.635.662v4.147l4.627.666.137.636a15.64,15.64,0,0,0,2.169,5.233l.353.546-2.8,3.741,2.933,2.934,3.742-2.8.546.353a15.637,15.637,0,0,0,5.232,2.168l.636.137.666,4.627h4.148l.662-4.635.638-.135a15.5,15.5,0,0,0,5.236-2.163l.546-.353,3.739,2.8,2.933-2.933-2.805-3.738.355-.547a15.525,15.525,0,0,0,2.166-5.236l.136-.638,4.632-.662v-4.146l-4.624-.661-.137-.636a15.913,15.913,0,0,0-.6-2.048c.6-.17,1.2-.357,1.787-.566.185.519.354,1.045.491,1.584l4.951.707v7.385l-4.957.71a17.354,17.354,0,0,1-1.93,4.667l3,4ZM1573.906,695.9q-1.1-.443-2.145-.977a8.739,8.739,0,1,0,12.248,2.944c-.8,0-1.585-.043-2.365-.111a6.861,6.861,0,1,1-7.738-1.856Zm-29.618-7.542-1.491,3.726,5.363,3.092,2.474-3.152a13.968,13.968,0,0,0,4.422.476l-.093-1.864a12.281,12.281,0,0,1-4.384-.576l-.619-.2-2.269,2.891-2.559-1.477,1.366-3.411-.484-.437a13.842,13.842,0,0,1-2.679-3.475l-.285-.615-3.673.444-.766-2.852,3.383-1.447-.035-.652a12.1,12.1,0,0,1,.57-4.383l.2-.62-2.891-2.266,1.475-2.558,3.41,1.367.436-.484a12.07,12.07,0,0,1,3.509-2.692l.581-.3-.441-3.651,2.852-.766,1.443,3.375.65-.033a12.309,12.309,0,0,1,3.555.346q.157-.926.376-1.831a13.682,13.682,0,0,0-3.37-.4l-1.574-3.682-5.98,1.6.481,3.979a13.937,13.937,0,0,0-3.018,2.316l-3.718-1.492-3.094,5.363,3.152,2.473a13.91,13.91,0,0,0-.491,3.769l-3.687,1.577,1.605,5.981,3.973-.481A16.722,16.722,0,0,0,1544.288,688.361ZM1553.223,674a4.335,4.335,0,0,1,4.022.954c-.121-.779-.2-1.571-.258-2.37a6.194,6.194,0,0,0-2.625-.6,6.252,6.252,0,1,0,1.618,12.289,6.183,6.183,0,0,0,3.366-2.315c-.326-.717-.623-1.449-.887-2.2a4.417,4.417,0,0,1-.3.667,4.359,4.359,0,0,1-2.661,2.043,4.406,4.406,0,0,1-1.14.152h0a4.385,4.385,0,0,1-1.133-8.62Zm30.828-23.123a19.886,19.886,0,0,0-19.863,19.863h1.866a18,18,0,1,1,18,18V690.6a19.863,19.863,0,0,0,0-39.726Zm0,22.961a3.092,3.092,0,0,1-2.838-4.336l-5.128-4.5,1.231-1.4,5.131,4.5a3.028,3.028,0,0,1,3.574.266l9.041-5.774,1.005,1.572-9.035,5.771a3.056,3.056,0,0,1-2.98,3.9Zm0-1.866a1.232,1.232,0,1,0-1.233-1.232A1.233,1.233,0,0,0,1584.051,671.97Zm25.547-1.232a25.547,25.547,0,1,1-25.547-25.548A25.576,25.576,0,0,1,1609.6,670.738Zm-1.866,0a23.681,23.681,0,1,0-23.681,23.681A23.708,23.708,0,0,0,1607.732,670.738Zm-55.254-31.045,8.563.041v10.882h1.866V630.475h8.564v11.5h1.866v-7.445h8.564v6.607h1.866v-17.6l6.017-3.981,6.017,3.981v20.994h1.866v-13.49h8.564v23.74h1.866V629.171h-10.431V622.53l-7.884-5.215-7.884,5.215v10.131h-8.564v-4.052h-12.3v9.218h-10.43v18.685h1.866Zm74.665,82.009a9.4,9.4,0,0,1-9.392,9.381H1600.97v1.867h16.779a11.265,11.265,0,0,0,11.259-11.248V689.486h-1.866Zm-5.013-8.374h-1.867v3.094h1.867Zm-1.867,7.378h1.867v-1.666h-1.867Zm1.867-18.516h-1.867v8.829h1.867Zm-7.694-17.613h-1.867v3.094h1.867Zm0-4.284h-1.867v1.666h1.867Zm-1.867,21.9h1.867V689.981h-1.867Zm-5.107,22.252v-1.866h-3.094v1.866Zm4.284-1.866h-1.665v1.866h1.665Zm-9.686,0h-16.1v1.866h16.1Zm25.083-64.485V676.6l-4.028-4.027-1.319,1.32,6.282,6.283,6.282-6.283-1.319-1.32-4.03,4.03V658.091a11.265,11.265,0,0,0-11.259-11.247h-7.594v1.866h7.594A9.4,9.4,0,0,1,1627.142,658.091ZM1546.505,721.7V705.763l4.028,4.028,1.321-1.319-6.282-6.282-6.282,6.282,1.319,1.319,4.03-4.03V721.7A11.266,11.266,0,0,0,1555.9,732.95h9.883v-1.866H1555.9A9.4,9.4,0,0,1,1546.505,721.7Zm34.712,11.247h4.181v-1.866h-4.181Zm10.839,0h7.071v-1.866h-7.071Zm-4.259,0h1.721v-1.866H1587.8Zm-19.006,0h9.4v-1.866h-9.4Z" transform="translate(0)" fill="#1a1a1a"/></g></g></svg>