<svg xmlns="http://www.w3.org/2000/svg" width="150" height="130" viewBox="0 0 150 130"><g transform="translate(-150 -4502)"><rect width="150" height="130" transform="translate(150 4502)" fill="#fff"/><g transform="translate(90.843 4127.132)"><path d="M135.362,449.111a.757.757,0,0,1-.757-.7l-1.8-23.023a.757.757,0,0,1,1.509-.119l1.806,23.023a.754.754,0,0,1-.7.812A.383.383,0,0,1,135.362,449.111Z" fill="#1a1a1a"/><path d="M141.419,449.1a.558.558,0,0,1-.058,0,.756.756,0,0,1-.7-.811l1.729-23.028a.757.757,0,1,1,1.509.114L142.172,448.4A.757.757,0,0,1,141.419,449.1Z" fill="#1a1a1a"/><path d="M128.255,424.328a.757.757,0,0,1-.614-1.2l5.034-6.937a.758.758,0,1,1,1.227.889l-5.036,6.938A.756.756,0,0,1,128.255,424.328Z" fill="#1a1a1a"/><path d="M138.348,424.312a.76.76,0,0,1-.613-.311l-5.058-6.921a.757.757,0,1,1,1.223-.893l5.059,6.92a.76.76,0,0,1-.611,1.205Z" fill="#1a1a1a"/><path d="M148.443,424.3a.759.759,0,0,1-.613-.311l-5.058-6.921a.756.756,0,1,1,1.221-.893l5.059,6.92a.757.757,0,0,1-.164,1.058A.765.765,0,0,1,148.443,424.3Z" fill="#1a1a1a"/><path d="M138.347,424.312a.759.759,0,0,1-.613-1.2l5.036-6.937a.756.756,0,1,1,1.224.889L138.96,424A.762.762,0,0,1,138.347,424.312Z" fill="#1a1a1a"/><path d="M138.408,460.008a5.626,5.626,0,0,1-5.629-5.611c0-.16,0-.3.016-.437a.759.759,0,0,1,.754-.7l9.7-.016a.756.756,0,0,1,.755.694c.012.139.016.277.017.436A5.626,5.626,0,0,1,138.408,460.008Zm-4.1-5.232a4.106,4.106,0,0,0,8.177-.013Z" fill="#1a1a1a"/><path d="M146.868,449.092l-16.958.029a.76.76,0,0,1-.757-.713c-.446-7.568-2.614-10.8-4.711-13.926-1.952-2.912-3.8-5.661-3.806-11.394a17.711,17.711,0,0,1,35.421-.059c.01,5.731-1.826,8.486-3.768,11.4-2.087,3.133-4.244,6.372-4.666,13.945A.756.756,0,0,1,146.868,449.092Zm-16.251-1.485,15.54-.026a25.2,25.2,0,0,1,4.872-13.988c1.891-2.837,3.523-5.288,3.514-10.562a16.2,16.2,0,0,0-32.393.055c.009,5.273,1.65,7.721,3.549,10.552A25.2,25.2,0,0,1,130.617,447.607Z" fill="#1a1a1a"/><path d="M146.494,451.925l-16.2.027a1.406,1.406,0,0,1-1.408-1.4l0-1.536a1.408,1.408,0,0,1,1.4-1.41l16.2-.027a1.409,1.409,0,0,1,1.408,1.4l0,1.536A1.4,1.4,0,0,1,146.494,451.925ZM130.4,450.438l15.981-.027,0-1.318-15.981.027Z" fill="#1a1a1a"/><path d="M145.345,454.758l-13.891.023a1.405,1.405,0,0,1-1.407-1.4l0-1.536a1.408,1.408,0,0,1,1.4-1.411l13.89-.023a1.41,1.41,0,0,1,1.411,1.406l0,1.536A1.405,1.405,0,0,1,145.345,454.758Zm-13.784-1.491,13.676-.023,0-1.317-13.675.023Z" fill="#1a1a1a"/><path d="M138.408,460.008a5.626,5.626,0,0,1-5.629-5.611c0-.16,0-.3.016-.437a.759.759,0,0,1,.754-.7l9.7-.016a.756.756,0,0,1,.755.694c.012.139.016.277.017.436A5.626,5.626,0,0,1,138.408,460.008Zm-4.1-5.232a4.106,4.106,0,0,0,8.177-.013Z" fill="#1a1a1a"/><path d="M158.3,484.361H124.242a3.181,3.181,0,0,1-3.176-3.177v-7.773h-8.752a7.678,7.678,0,0,1-7.674-7.665V454.392l-4.828-.092a3.72,3.72,0,0,1-3.218-5.459l6.084-11.459a17.018,17.018,0,0,0,1.973-7.927,33.614,33.614,0,1,1,67.225.348,33.3,33.3,0,0,1-3.668,14.912,60.984,60.984,0,0,0-6.723,27.72v8.749A3.182,3.182,0,0,1,158.3,484.361Zm-20.039-86.979a32.124,32.124,0,0,0-32.1,32.073,18.54,18.54,0,0,1-2.149,8.636l-6.085,11.461a2.205,2.205,0,0,0,1.91,3.233l5.572.107a.756.756,0,0,1,.741.756v12.1a6.163,6.163,0,0,0,6.16,6.151h9.51a.757.757,0,0,1,.756.757v8.53a1.665,1.665,0,0,0,1.662,1.664H158.3a1.666,1.666,0,0,0,1.666-1.664v-8.749a62.5,62.5,0,0,1,6.891-28.412,32.046,32.046,0,0,0-28.328-46.64Z" fill="#1a1a1a"/></g></g></svg>