<svg xmlns="http://www.w3.org/2000/svg" width="150" height="130" viewBox="0 0 150 130"><g transform="translate(-150 -3265)"><rect width="150" height="130" transform="translate(150 3265)" fill="#fff"/><g transform="translate(17 -1)"><g transform="translate(-298.012 3023.597)"><path d="M494.991,350.4a.98.98,0,0,1-.814-1.523L507.228,329.3a.978.978,0,0,1,1.793.543v4.716a30.337,30.337,0,0,0-7.36-56.5.978.978,0,0,1-.6-1.5l6.1-9.143a.978.978,0,0,1,1.118-.386A42.738,42.738,0,0,1,494.991,350.4Zm12.072-17.324L496.848,348.4a40.78,40.78,0,0,0,11.52-79.262l-4.907,7.359a32.294,32.294,0,0,1,4.989,60.523.977.977,0,0,1-1.387-.887Z" transform="translate(9.76 0.483)" fill="#1a1a1a"/><path d="M491.772,348.811a.942.942,0,0,1-.3-.047A42.738,42.738,0,0,1,504.75,265.4a.979.979,0,0,1,.814,1.522L492.513,286.5a.979.979,0,0,1-1.793-.544V281.24a30.338,30.338,0,0,0,7.36,56.5.979.979,0,0,1,.6,1.5l-6.094,9.14A.978.978,0,0,1,491.772,348.811ZM502.893,267.4a40.78,40.78,0,0,0-11.52,79.262l4.907-7.359a32.3,32.3,0,0,1-4.988-60.526.977.977,0,0,1,1.386.891v3.055Z" transform="translate(0)" fill="#1a1a1a"/><circle cx="2.61" cy="2.61" r="2.61" transform="translate(541.289 275.517)" fill="#fff"/><circle cx="2.61" cy="2.61" r="2.61" transform="translate(473.431 344.68)" fill="#fff"/><circle cx="2.61" cy="2.61" r="2.61" transform="translate(539.984 338.155)" fill="#fff"/><path d="M499.873,325.12a21.886,21.886,0,0,1-3.546-.3.978.978,0,0,1-.808-.812l-1.04-6.534c-.278-.106-.559-.224-.846-.355l-5.352,3.886a.982.982,0,0,1-1.144.005A21.8,21.8,0,0,1,482.116,316a.975.975,0,0,1,0-1.146l3.886-5.353c-.127-.283-.245-.566-.354-.847l-6.537-1.043a.977.977,0,0,1-.812-.8,21.675,21.675,0,0,1,0-7.1.981.981,0,0,1,.812-.805l6.537-1.043q.16-.417.352-.844l-3.886-5.36a.975.975,0,0,1,0-1.146,21.871,21.871,0,0,1,5.02-5.014.978.978,0,0,1,1.144.005l5.35,3.885c.281-.125.564-.244.847-.352l1.04-6.531a.98.98,0,0,1,.805-.81,21.737,21.737,0,0,1,7.1,0,.98.98,0,0,1,.805.81l1.04,6.531c.284.108.568.227.846.352l5.356-3.886a.977.977,0,0,1,1.146,0,21.949,21.949,0,0,1,5.018,5.011.977.977,0,0,1,0,1.146l-3.888,5.356c.125.274.244.559.355.848l6.533,1.043a.981.981,0,0,1,.813.806,22.147,22.147,0,0,1,0,7.093.977.977,0,0,1-.813.805l-6.534,1.043c-.11.286-.228.569-.355.847l3.889,5.353a.981.981,0,0,1,0,1.148,21.952,21.952,0,0,1-5.018,5.011.986.986,0,0,1-1.146,0l-5.357-3.886c-.283.129-.565.249-.844.355l-1.04,6.534a.978.978,0,0,1-.808.812A21.875,21.875,0,0,1,499.873,325.12Zm3.389-1.261h0Zm-5.922-.865a19.269,19.269,0,0,0,5.069,0l1.018-6.394a.977.977,0,0,1,.656-.774,13.456,13.456,0,0,0,1.7-.711.978.978,0,0,1,1.011.082L512.037,319a19.953,19.953,0,0,0,3.586-3.582l-3.807-5.242a.975.975,0,0,1-.084-1.013,13.108,13.108,0,0,0,.71-1.7.972.972,0,0,1,.774-.652l6.4-1.02a20.223,20.223,0,0,0,0-5.065l-6.4-1.021a.981.981,0,0,1-.774-.654,12.181,12.181,0,0,0-.707-1.693.98.98,0,0,1,.081-1.021l3.807-5.246a20.036,20.036,0,0,0-3.586-3.582l-5.246,3.808a.981.981,0,0,1-1.018.08,12.485,12.485,0,0,0-1.687-.7.974.974,0,0,1-.659-.775l-1.018-6.4a19.611,19.611,0,0,0-5.069,0l-1.018,6.4a.976.976,0,0,1-.659.775,12.231,12.231,0,0,0-1.693.7.979.979,0,0,1-1.017-.082l-5.24-3.805a19.882,19.882,0,0,0-3.589,3.582l3.8,5.246a.977.977,0,0,1,.085,1.006,13.76,13.76,0,0,0-.707,1.7.978.978,0,0,1-.774.659l-6.4,1.021a19.735,19.735,0,0,0,0,5.065l6.4,1.02a.975.975,0,0,1,.774.656,13.144,13.144,0,0,0,.709,1.7.975.975,0,0,1-.083,1.011l-3.807,5.242A19.844,19.844,0,0,0,487.715,319l5.24-3.805a.988.988,0,0,1,1.011-.086,13.165,13.165,0,0,0,1.7.714.979.979,0,0,1,.656.774Z" transform="translate(4.88 4.88)" fill="#1a1a1a"/><path d="M496.668,308.215a8.156,8.156,0,1,1,8.156-8.156A8.166,8.166,0,0,1,496.668,308.215Zm0-14.355a6.2,6.2,0,1,0,6.2,6.2A6.205,6.205,0,0,0,496.668,293.86Z" transform="translate(8.082 8.082)" fill="#1a1a1a"/></g><g transform="translate(-64.285 3070.197)"><g transform="translate(310.285 221.47)"><path d="M313.6,222.136h-2.151a1.167,1.167,0,1,1,0-2.333H313.6a1.167,1.167,0,0,1,0,2.333Z" transform="translate(-310.285 -219.803)" fill="#21365f"/></g><g transform="translate(317.464 221.47)"><path d="M318.221,222.136h-2.154a1.167,1.167,0,0,1,0-2.333h2.154a1.167,1.167,0,0,1,0,2.333Z" transform="translate(-314.9 -219.803)" fill="#21365f"/></g><g transform="translate(314.952 223.982)"><path d="M314.452,225.906a1.167,1.167,0,0,1-1.167-1.167v-2.154a1.167,1.167,0,1,1,2.333,0v2.154A1.167,1.167,0,0,1,314.452,225.906Z" transform="translate(-313.285 -221.418)" fill="#21365f"/></g><g transform="translate(314.952 216.803)"><path d="M314.452,221.288a1.167,1.167,0,0,1-1.167-1.167V217.97a1.167,1.167,0,1,1,2.333,0v2.151A1.167,1.167,0,0,1,314.452,221.288Z" transform="translate(-313.285 -216.803)" fill="#21365f"/></g><g transform="translate(319.618 237.027)"><path d="M319.6,232.137h-2.153a1.167,1.167,0,0,1,0-2.333H319.6a1.167,1.167,0,0,1,0,2.333Z" transform="translate(-316.285 -229.804)" fill="#21365f"/></g><g transform="translate(326.797 237.027)"><path d="M324.221,232.137h-2.154a1.167,1.167,0,1,1,0-2.333h2.154a1.167,1.167,0,0,1,0,2.333Z" transform="translate(-320.9 -229.804)" fill="#21365f"/></g><g transform="translate(324.285 239.539)"><path d="M320.452,235.907a1.167,1.167,0,0,1-1.167-1.167v-2.154a1.167,1.167,0,0,1,2.333,0v2.154A1.167,1.167,0,0,1,320.452,235.907Z" transform="translate(-319.285 -231.419)" fill="#21365f"/></g><g transform="translate(324.285 232.36)"><path d="M320.452,231.29a1.168,1.168,0,0,1-1.167-1.167v-2.153a1.167,1.167,0,1,1,2.333,0v2.153A1.168,1.168,0,0,1,320.452,231.29Z" transform="translate(-319.285 -226.804)" fill="#21365f"/></g></g><g transform="translate(-160.285 3131.197)"><g transform="translate(310.285 221.47)"><path d="M313.6,222.136h-2.151a1.167,1.167,0,1,1,0-2.333H313.6a1.167,1.167,0,0,1,0,2.333Z" transform="translate(-310.285 -219.803)" fill="#21365f"/></g><g transform="translate(317.464 221.47)"><path d="M318.221,222.136h-2.154a1.167,1.167,0,0,1,0-2.333h2.154a1.167,1.167,0,0,1,0,2.333Z" transform="translate(-314.9 -219.803)" fill="#21365f"/></g><g transform="translate(314.952 223.982)"><path d="M314.452,225.906a1.167,1.167,0,0,1-1.167-1.167v-2.154a1.167,1.167,0,1,1,2.333,0v2.154A1.167,1.167,0,0,1,314.452,225.906Z" transform="translate(-313.285 -221.418)" fill="#21365f"/></g><g transform="translate(314.952 216.803)"><path d="M314.452,221.288a1.167,1.167,0,0,1-1.167-1.167V217.97a1.167,1.167,0,1,1,2.333,0v2.151A1.167,1.167,0,0,1,314.452,221.288Z" transform="translate(-313.285 -216.803)" fill="#21365f"/></g><g transform="translate(319.618 237.027)"><path d="M319.6,232.137h-2.153a1.167,1.167,0,0,1,0-2.333H319.6a1.167,1.167,0,0,1,0,2.333Z" transform="translate(-316.285 -229.804)" fill="#21365f"/></g><g transform="translate(326.797 237.027)"><path d="M324.221,232.137h-2.154a1.167,1.167,0,1,1,0-2.333h2.154a1.167,1.167,0,0,1,0,2.333Z" transform="translate(-320.9 -229.804)" fill="#21365f"/></g><g transform="translate(324.285 239.539)"><path d="M320.452,235.907a1.167,1.167,0,0,1-1.167-1.167v-2.154a1.167,1.167,0,0,1,2.333,0v2.154A1.167,1.167,0,0,1,320.452,235.907Z" transform="translate(-319.285 -231.419)" fill="#21365f"/></g><g transform="translate(324.285 232.36)"><path d="M320.452,231.29a1.168,1.168,0,0,1-1.167-1.167v-2.153a1.167,1.167,0,1,1,2.333,0v2.153A1.168,1.168,0,0,1,320.452,231.29Z" transform="translate(-319.285 -226.804)" fill="#21365f"/></g></g></g></g></svg>