<svg xmlns="http://www.w3.org/2000/svg" width="150" height="130" viewBox="0 0 150 130"><g transform="translate(-310 -4502)"><rect width="150" height="130" transform="translate(310 4502)" fill="#fff"/><g transform="translate(250.012 4267.418)"><path d="M163.944,331.418h-6.267a2.876,2.876,0,0,1-2.872-2.873v-6.267a2.875,2.875,0,0,1,2.872-2.872h6.267a2.876,2.876,0,0,1,2.872,2.872v6.267A2.876,2.876,0,0,1,163.944,331.418Zm-6.267-10.446a1.306,1.306,0,0,0-1.306,1.306v6.267a1.307,1.307,0,0,0,1.306,1.306h6.267a1.308,1.308,0,0,0,1.306-1.306v-6.267a1.307,1.307,0,0,0-1.306-1.306Z" transform="translate(2.406 2.406)" fill="#1a1a1a"/><path d="M145.945,331.418h-6.267a2.876,2.876,0,0,1-2.872-2.873v-6.267a2.876,2.876,0,0,1,2.872-2.872h6.267a2.875,2.875,0,0,1,2.873,2.872v6.267A2.876,2.876,0,0,1,145.945,331.418Zm-6.267-10.446a1.307,1.307,0,0,0-1.306,1.306v6.267a1.308,1.308,0,0,0,1.306,1.306h6.267a1.307,1.307,0,0,0,1.306-1.306v-6.267a1.306,1.306,0,0,0-1.306-1.306Z" transform="translate(1.604 2.406)" fill="#1a1a1a"/><path d="M127.944,331.418h-6.267a2.876,2.876,0,0,1-2.872-2.873v-6.267a2.876,2.876,0,0,1,2.872-2.872h6.267a2.875,2.875,0,0,1,2.872,2.872v6.267A2.876,2.876,0,0,1,127.944,331.418Zm-6.267-10.446a1.307,1.307,0,0,0-1.306,1.306v6.267a1.308,1.308,0,0,0,1.306,1.306h6.267a1.307,1.307,0,0,0,1.306-1.306v-6.267a1.306,1.306,0,0,0-1.306-1.306Z" transform="translate(0.802 2.406)" fill="#1a1a1a"/><path d="M154.943,313.415h-6.267a2.875,2.875,0,0,1-2.872-2.873v-6.267a2.876,2.876,0,0,1,2.872-2.873h6.267a2.876,2.876,0,0,1,2.873,2.873v6.267A2.876,2.876,0,0,1,154.943,313.415Zm-6.267-10.445a1.308,1.308,0,0,0-1.306,1.306v6.267a1.306,1.306,0,0,0,1.306,1.306h6.267a1.306,1.306,0,0,0,1.306-1.306v-6.267a1.308,1.308,0,0,0-1.306-1.306Z" transform="translate(2.005 1.604)" fill="#1a1a1a"/><path d="M136.944,313.415h-6.267a2.876,2.876,0,0,1-2.873-2.873v-6.267a2.876,2.876,0,0,1,2.873-2.873h6.267a2.876,2.876,0,0,1,2.873,2.873v6.267A2.875,2.875,0,0,1,136.944,313.415Zm-6.267-10.445a1.308,1.308,0,0,0-1.306,1.306v6.267a1.306,1.306,0,0,0,1.306,1.306h6.267a1.306,1.306,0,0,0,1.306-1.306v-6.267a1.307,1.307,0,0,0-1.306-1.306Z" transform="translate(1.203 1.604)" fill="#1a1a1a"/><path d="M145.942,295.414h-6.267a2.876,2.876,0,0,1-2.873-2.872v-6.267a2.875,2.875,0,0,1,2.873-2.873h6.267a2.876,2.876,0,0,1,2.873,2.873v6.267A2.876,2.876,0,0,1,145.942,295.414Zm-6.267-10.445a1.306,1.306,0,0,0-1.306,1.306v6.267a1.307,1.307,0,0,0,1.306,1.306h6.267a1.307,1.307,0,0,0,1.306-1.306v-6.267a1.307,1.307,0,0,0-1.306-1.306Z" transform="translate(1.604 0.802)" fill="#1a1a1a"/><path d="M136.941,277.411h-6.267a2.875,2.875,0,0,1-2.873-2.872v-6.267a2.876,2.876,0,0,1,2.873-2.873h6.267a2.876,2.876,0,0,1,2.873,2.873v6.267A2.876,2.876,0,0,1,136.941,277.411Zm-6.267-10.445a1.308,1.308,0,0,0-1.306,1.306v6.267a1.305,1.305,0,0,0,1.306,1.306h6.267a1.306,1.306,0,0,0,1.306-1.306v-6.267a1.308,1.308,0,0,0-1.306-1.306Z" transform="translate(1.203)" fill="#1a1a1a"/><path d="M127.944,295.414h-6.267a2.876,2.876,0,0,1-2.872-2.872v-6.267a2.875,2.875,0,0,1,2.872-2.873h6.267a2.876,2.876,0,0,1,2.872,2.873v6.267A2.876,2.876,0,0,1,127.944,295.414Zm-6.267-10.445a1.306,1.306,0,0,0-1.306,1.306v6.267a1.307,1.307,0,0,0,1.306,1.306h6.267a1.307,1.307,0,0,0,1.306-1.306v-6.267a1.307,1.307,0,0,0-1.306-1.306Z" transform="translate(0.802 0.802)" fill="#1a1a1a"/><path d="M118.944,313.415h-6.267a2.875,2.875,0,0,1-2.873-2.873v-6.267a2.876,2.876,0,0,1,2.873-2.873h6.267a2.876,2.876,0,0,1,2.873,2.873v6.267A2.876,2.876,0,0,1,118.944,313.415Zm-6.267-10.445a1.307,1.307,0,0,0-1.306,1.306v6.267a1.306,1.306,0,0,0,1.306,1.306h6.267a1.306,1.306,0,0,0,1.306-1.306v-6.267a1.308,1.308,0,0,0-1.306-1.306Z" transform="translate(0.401 1.604)" fill="#1a1a1a"/><path d="M109.944,331.418h-6.267a2.876,2.876,0,0,1-2.873-2.873v-6.267a2.875,2.875,0,0,1,2.873-2.872h6.267a2.876,2.876,0,0,1,2.873,2.872v6.267A2.876,2.876,0,0,1,109.944,331.418Zm-6.267-10.446a1.306,1.306,0,0,0-1.306,1.306v6.267a1.307,1.307,0,0,0,1.306,1.306h6.267a1.308,1.308,0,0,0,1.306-1.306v-6.267a1.307,1.307,0,0,0-1.306-1.306Z" transform="translate(0 2.406)" fill="#1a1a1a"/><path d="M124.588,285.548a.784.784,0,0,1-.783-.783V273.271a2.876,2.876,0,0,1,2.873-2.872h2.088a.783.783,0,0,1,0,1.567h-2.088a1.308,1.308,0,0,0-1.306,1.306v11.493A.784.784,0,0,1,124.588,285.548Z" transform="translate(1.025 0.223)" fill="#1a1a1a"/><path d="M137.944,289.969h-8.355a.783.783,0,1,1,0-1.567h8.355a.783.783,0,1,1,0,1.567Z" transform="translate(1.247 1.025)" fill="#1a1a1a"/><path d="M124.587,308.549a.783.783,0,0,1-.783-.783v-13.58a.783.783,0,0,1,1.567,0v13.58A.783.783,0,0,1,124.587,308.549Z" transform="translate(1.025 1.248)" fill="#1a1a1a"/><path d="M128.944,307.97h-8.356a.783.783,0,0,1,0-1.567h8.356a.783.783,0,0,1,0,1.567Z" transform="translate(0.846 1.827)" fill="#1a1a1a"/><path d="M151.766,303.549a.783.783,0,0,1-.783-.783V291.275a1.306,1.306,0,0,0-1.306-1.306h-2.088a.783.783,0,0,1,0-1.567h2.088a2.875,2.875,0,0,1,2.872,2.872v11.491A.783.783,0,0,1,151.766,303.549Z" transform="translate(2.049 1.025)" fill="#1a1a1a"/><path d="M142.588,321.552a.784.784,0,0,1-.783-.783V309.276a2.876,2.876,0,0,1,2.872-2.873h2.088a.783.783,0,1,1,0,1.567h-2.088a1.308,1.308,0,0,0-1.306,1.306v11.493A.784.784,0,0,1,142.588,321.552Z" transform="translate(1.827 1.827)" fill="#1a1a1a"/><path d="M155.944,325.973h-8.356a.783.783,0,0,1,0-1.567h8.356a.783.783,0,1,1,0,1.567Z" transform="translate(2.049 2.629)" fill="#1a1a1a"/><path d="M119.944,325.973h-8.356a.783.783,0,1,1,0-1.567h8.356a.783.783,0,1,1,0,1.567Z" transform="translate(0.445 2.629)" fill="#1a1a1a"/><path d="M115.587,326.552a.784.784,0,0,1-.783-.783V312.186a.783.783,0,0,1,1.567,0v13.582A.784.784,0,0,1,115.587,326.552Z" transform="translate(0.624 2.049)" fill="#1a1a1a"/></g></g></svg>