<svg xmlns="http://www.w3.org/2000/svg" width="150" height="130" viewBox="0 0 150 130"><g transform="translate(-310 -3265)"><rect width="150" height="130" transform="translate(310 3265)" fill="#fff"/><g transform="translate(-515.6 2944.261)"><g transform="translate(853.6 338.739)"><path d="M918.894,432.215H857.525a3.929,3.929,0,0,1-3.925-3.925v-74.21a1.074,1.074,0,0,1,.314-.756l14.271-14.271a1.068,1.068,0,0,1,.756-.314h49.952a3.929,3.929,0,0,1,3.925,3.925v85.627A3.928,3.928,0,0,1,918.894,432.215Zm-63.153-77.691v73.766a1.786,1.786,0,0,0,1.784,1.784h61.369a1.785,1.785,0,0,0,1.784-1.784V342.664a1.785,1.785,0,0,0-1.784-1.784H869.385Z" transform="translate(-853.6 -338.739)" fill="#1a1a1a"/></g><g transform="translate(862.163 347.299)"><path d="M884.931,378.274H863.525a3.929,3.929,0,0,1-3.925-3.925V348.662a3.93,3.93,0,0,1,3.925-3.925h21.407a3.929,3.929,0,0,1,3.925,3.925V374.35A3.928,3.928,0,0,1,884.931,378.274Zm-21.407-31.4a1.786,1.786,0,0,0-1.784,1.784V374.35a1.786,1.786,0,0,0,1.784,1.784h21.407a1.785,1.785,0,0,0,1.784-1.784V348.662a1.785,1.785,0,0,0-1.784-1.784Z" transform="translate(-859.6 -344.737)" fill="#1a1a1a"/></g><g transform="translate(862.164 407.244)"><path d="M907.766,403.153H863.526a3.929,3.929,0,0,1-3.925-3.925v-8.563a3.93,3.93,0,0,1,3.925-3.925h44.241a3.929,3.929,0,0,1,3.925,3.925v8.563A3.928,3.928,0,0,1,907.766,403.153Zm-44.241-14.271a1.786,1.786,0,0,0-1.784,1.784v8.563a1.785,1.785,0,0,0,1.784,1.784h44.241a1.785,1.785,0,0,0,1.784-1.784v-8.563a1.785,1.785,0,0,0-1.784-1.784Z" transform="translate(-859.601 -386.741)" fill="#1a1a1a"/></g><g transform="translate(897.487 362.643)"><path d="M908.613,355.489l-24.261,11.417v17.121c0,22.845,24.261,28.547,24.261,28.547s24.261-5.716,24.261-28.547V366.906Z" transform="translate(-884.352 -355.489)" fill="#fff"/></g><g transform="translate(896.416 361.573)"><path d="M908.933,413.965a1.174,1.174,0,0,1-.244-.027c-.251-.06-25.087-6.168-25.087-29.589V367.228a1.073,1.073,0,0,1,.615-.969l24.261-11.418a1.073,1.073,0,0,1,.912,0l24.261,11.418a1.073,1.073,0,0,1,.614.969v17.121c0,23.408-24.835,29.529-25.086,29.589A1.179,1.179,0,0,1,908.933,413.965Zm-23.191-46.057v16.442c0,20.759,20.553,26.758,23.191,27.442,2.639-.685,23.191-6.7,23.191-27.442V367.907l-23.191-10.915Z" transform="translate(-883.602 -354.739)" fill="#1a1a1a"/></g><g transform="translate(903.552 369.423)"><path d="M906.8,403.766a1.136,1.136,0,0,1-.25-.029c-.18-.044-17.946-4.531-17.946-21.738V369.588a1.07,1.07,0,0,1,.605-.963l17.125-8.279a1.078,1.078,0,0,1,.932,0l17.125,8.279a1.071,1.071,0,0,1,.6.963V382c0,17.2-17.765,21.694-17.943,21.736A1.071,1.071,0,0,1,906.8,403.766ZM890.743,370.26V382c0,14.48,14.014,19.006,16.059,19.589,2.154-.592,16.051-4.982,16.051-19.589V370.26L906.8,362.5Z" transform="translate(-888.602 -360.24)" fill="#1a1a1a"/></g><g transform="translate(915.683 379.342)"><path d="M908.162,388.03h-9.99a1.069,1.069,0,0,1-1.049-1.282l1.835-9.152a5.989,5.989,0,0,1-1.857-4.341,6.065,6.065,0,1,1,12.13,0,5.987,5.987,0,0,1-1.855,4.341l1.835,9.152a1.069,1.069,0,0,1-1.05,1.282Zm-8.684-2.141h7.378l-1.7-8.483a1.074,1.074,0,0,1,.4-1.059,3.886,3.886,0,0,0,1.541-3.093,3.925,3.925,0,0,0-7.849,0,3.887,3.887,0,0,0,1.543,3.093,1.074,1.074,0,0,1,.4,1.059Z" transform="translate(-897.102 -367.19)" fill="#1a1a1a"/></g><g transform="translate(854.671 339.81)"><path d="M868.622,339.489,854.35,353.76h14.271Z" transform="translate(-854.35 -339.489)" fill="#fff"/></g><g transform="translate(853.601 338.74)"><path d="M868.941,355.151H854.67a1.07,1.07,0,0,1-.756-1.827l14.271-14.271a1.069,1.069,0,0,1,1.827.756V354.08A1.07,1.07,0,0,1,868.941,355.151Zm-11.687-2.141h10.616V342.394Z" transform="translate(-853.6 -338.739)" fill="#1a1a1a"/></g><g transform="translate(875.159 385.833)"><path d="M885.323,373.879H869.777a1.07,1.07,0,0,1,0-2.141h15.546a1.07,1.07,0,0,1,0,2.141Z" transform="translate(-868.707 -371.738)" fill="#1a1a1a"/></g><g transform="translate(862.164 385.833)"><path d="M867.958,373.879h-7.287a1.07,1.07,0,0,1,0-2.141h7.287a1.07,1.07,0,1,1,0,2.141Z" transform="translate(-859.601 -371.738)" fill="#1a1a1a"/></g><g transform="translate(883.724 392.968)"><path d="M882.76,378.879h-6.981a1.07,1.07,0,0,1,0-2.141h6.981a1.07,1.07,0,0,1,0,2.141Z" transform="translate(-874.708 -376.738)" fill="#1a1a1a"/></g><g transform="translate(862.164 392.968)"><path d="M876.522,378.879H860.671a1.07,1.07,0,0,1,0-2.141h15.851a1.07,1.07,0,1,1,0,2.141Z" transform="translate(-859.601 -376.738)" fill="#1a1a1a"/></g><g transform="translate(878.015 400.105)"><path d="M885.9,383.88H871.778a1.07,1.07,0,0,1,0-2.141H885.9a1.07,1.07,0,0,1,0,2.141Z" transform="translate(-870.708 -381.739)" fill="#1a1a1a"/></g><g transform="translate(862.164 400.105)"><path d="M870.812,383.88H860.671a1.07,1.07,0,0,1,0-2.141h10.141a1.07,1.07,0,1,1,0,2.141Z" transform="translate(-859.601 -381.739)" fill="#1a1a1a"/></g><g transform="translate(896.415 347.299)"><path d="M900.371,346.878h-15.7a1.07,1.07,0,0,1,0-2.141h15.7a1.07,1.07,0,0,1,0,2.141Z" transform="translate(-883.601 -344.737)" fill="#1a1a1a"/></g><g transform="translate(896.415 354.436)"><path d="M900.371,351.879h-15.7a1.07,1.07,0,0,1,0-2.141h15.7a1.07,1.07,0,0,1,0,2.141Z" transform="translate(-883.601 -349.738)" fill="#1a1a1a"/></g><g transform="translate(896.415 361.571)"><path d="M894.661,356.879h-9.99a1.07,1.07,0,0,1,0-2.141h9.99a1.07,1.07,0,0,1,0,2.141Z" transform="translate(-883.601 -354.738)" fill="#1a1a1a"/></g><g transform="translate(876.434 354.437)"><path d="M873.525,357.588a3.925,3.925,0,1,1,3.925-3.925A3.929,3.929,0,0,1,873.525,357.588Zm0-5.708a1.784,1.784,0,1,0,1.784,1.784A1.786,1.786,0,0,0,873.525,351.88Z" transform="translate(-869.6 -349.739)" fill="#1a1a1a"/></g><g transform="translate(867.871 364.429)"><path d="M867.525,364.589a3.925,3.925,0,1,1,3.925-3.925A3.928,3.928,0,0,1,867.525,364.589Zm0-5.708a1.784,1.784,0,1,0,1.784,1.784A1.786,1.786,0,0,0,867.525,358.881Z" transform="translate(-863.6 -356.74)" fill="#1a1a1a"/></g></g></g></svg>