<svg xmlns="http://www.w3.org/2000/svg" width="150" height="130" viewBox="0 0 150 130"><g transform="translate(-150 -1999)"><rect width="150" height="130" transform="translate(150 1999)" fill="#fff"/><g transform="translate(268.78 1268.924) rotate(45)"><g transform="translate(513.019 530.778)"><g transform="translate(7.736 0.119)"><path d="M550.385,595.714H519.4a.921.921,0,0,1-.922-.92v-25.3a58.777,58.777,0,0,1,10.888-34.22l1.941-2.71c.205-.232.354-.381.5-.518a4.3,4.3,0,0,1,5.932.02c.122.11.268.259.408.409l2.239,2.751A59.244,59.244,0,0,1,551.3,569.237v25.556A.92.92,0,0,1,550.385,595.714Zm-30.06-1.842h29.138V569.237a57.358,57.358,0,0,0-10.539-32.9l-2.162-2.656c-.068-.069-.178-.184-.294-.29a2.377,2.377,0,0,0-3.37-.03c-.134.129-.252.244-.358.361l-1.87,2.618a56.939,56.939,0,0,0-10.544,33.153Z" transform="translate(-518.482 -530.862)"/></g><g transform="translate(38.716 52.809)"><path d="M549.03,585.4h-7.747a.921.921,0,0,1-.922-.922V568.992a.921.921,0,0,1,1.572-.651l7.747,7.738a.921.921,0,0,1,.272.65v7.747A.921.921,0,0,1,549.03,585.4Zm-6.827-1.842h5.906v-6.444l-5.906-5.9Z" transform="translate(-540.361 -568.072)"/></g><g transform="translate(12.896 73.451)"><path d="M543.733,592.242a.2.2,0,0,1-.028,0H523.046a.921.921,0,0,1-.92-.922,10.136,10.136,0,0,1,1.3-5.252l1.376-2.893a.921.921,0,0,1,.83-.525H541.12a.924.924,0,0,1,.831.525l1.42,2.972a11.669,11.669,0,0,1,1.252,4.935,1.018,1.018,0,0,1,.03.238A.921.921,0,0,1,543.733,592.242ZM524.005,590.4h18.732a9.982,9.982,0,0,0-1.02-3.442l-1.178-2.465H526.217l-1.171,2.45A8.043,8.043,0,0,0,524.005,590.4Z" transform="translate(-522.126 -582.65)"/></g><g transform="translate(0 52.809)"><path d="M521.676,585.4h-7.737a.921.921,0,0,1-.92-.922v-7.747a.925.925,0,0,1,.269-.65l7.737-7.738a.921.921,0,0,1,1.572.651v15.484A.921.921,0,0,1,521.676,585.4Zm-6.817-1.842h5.895V571.214l-5.895,5.9Z" transform="translate(-513.019 -568.072)"/></g><g transform="translate(14.059 30.732)"><path d="M533.039,572.655a10.083,10.083,0,1,1,7.1-2.978A10.021,10.021,0,0,1,533.039,572.655Zm0-18.333a8.251,8.251,0,1,0,5.8,2.445A8.175,8.175,0,0,0,533.039,554.322Zm0,14.681a6.544,6.544,0,1,1,4.518-1.912A6.379,6.379,0,0,1,533.036,569Zm0-11.035a4.706,4.706,0,1,0,3.217,1.375A4.555,4.555,0,0,0,533.036,557.968Z" transform="translate(-522.947 -552.481)"/></g><g transform="translate(7.736 63.128)"><path d="M548.579,587.525H521.208a2.7,2.7,0,0,1-2.726-2.724v-8.519a.921.921,0,0,1,.922-.922h30.981a.921.921,0,0,1,.92.922V584.8A2.666,2.666,0,0,1,548.579,587.525ZM520.324,577.2v7.6a.844.844,0,0,0,.884.882h27.371a.836.836,0,0,0,.884-.882v-7.6Z" transform="translate(-518.482 -575.36)"/></g><g transform="translate(10.84)"><path d="M546.369,551.857H521.594a.92.92,0,0,1-.872-1.211,56.065,56.065,0,0,1,7.74-15.349l2.062-2.839a.856.856,0,0,1,.1-.114l.11-.109c.086-.085.17-.166.249-.251a4.337,4.337,0,0,1,6.107.1l.4.4,2.026,2.809a62.585,62.585,0,0,1,7.73,15.347.918.918,0,0,1-.872,1.211Zm-23.484-1.842h22.192A61.67,61.67,0,0,0,538,536.35l-2.137-2.882a2.449,2.449,0,0,0-3.56-.2c-.075.081-.177.181-.283.283l-.051.052-2.015,2.774A53.733,53.733,0,0,0,522.884,550.014Z" transform="translate(-520.675 -530.778)"/></g><g transform="translate(16.437 85.106)"><path d="M525.781,612.335a.922.922,0,0,1-.92-.909l-.234-19.613a.921.921,0,0,1,.909-.932h.011a.922.922,0,0,1,.922.909L526.7,611.4a.922.922,0,0,1-.911.932Z" transform="translate(-524.627 -590.881)"/></g><g transform="translate(1.193 82.591)"><path d="M514.783,618.551a.919.919,0,0,1-.892-1.15l7.1-27.6a.921.921,0,1,1,1.784.459l-7.1,27.6A.924.924,0,0,1,514.783,618.551Z" transform="translate(-513.862 -589.105)"/></g><g transform="translate(38.411 82.59)"><path d="M548.157,618.551a.923.923,0,0,1-.892-.691l-7.09-27.6a.921.921,0,0,1,1.784-.459l7.09,27.6a.925.925,0,0,1-.663,1.122A.94.94,0,0,1,548.157,618.551Z" transform="translate(-540.146 -589.104)"/></g><g transform="translate(22.653 85.106)"><path d="M530.182,612.335a.922.922,0,0,1-.922-.909l-.243-19.613a.922.922,0,0,1,.909-.932h.011a.922.922,0,0,1,.92.909L531.1,611.4a.922.922,0,0,1-.909.932Z" transform="translate(-529.017 -590.881)"/></g><g transform="translate(28.879 85.106)"><path d="M534.569,612.335a.922.922,0,0,1-.92-.909l-.235-19.613a.922.922,0,0,1,.911-.932h.01a.922.922,0,0,1,.922.909l.235,19.613a.922.922,0,0,1-.911.932Z" transform="translate(-533.414 -590.881)"/></g></g></g></g></svg>