<svg xmlns="http://www.w3.org/2000/svg" width="200" height="230" viewBox="0 0 200 230"><g transform="translate(-800 -2730)"><rect width="200" height="230" transform="translate(800 2730)" fill="#fff"/><g transform="translate(812 2758.427)"><g transform="translate(4.241)"><path d="M-1813.7,1443l-84.642,48.979v97.958l84.642,48.979,84.642-48.979v-97.958Z" transform="translate(1898.345 -1443)" fill="none" stroke="#1a1a1a" stroke-miterlimit="10" stroke-width="1"/><line x2="114.076" y2="37.211" transform="translate(0.008 141.435)" stroke-width="1" stroke="#1a1a1a" stroke-linecap="round" stroke-linejoin="round" fill="none"/><line y1="37.321" x2="113.66" transform="translate(55.558 141.324)" stroke-width="1" stroke="#1a1a1a" stroke-linecap="round" stroke-linejoin="round" fill="none"/></g><g transform="translate(0 5.7)"><g transform="translate(25.541 16.678)"><g transform="translate(0)"><g transform="translate(0.354 0.348)"><ellipse cx="65.782" cy="64.908" rx="65.782" ry="64.908" fill="#fff"/></g><path d="M429.179,129.71c-.651,35.977-30.844,64.723-67.306,64.081s-65.6-30.434-64.944-66.411S327.772,62.657,364.234,63.3,429.829,93.733,429.179,129.71ZM297.6,127.392c-.644,35.609,28.193,65.1,64.281,65.732S427.859,165.306,428.5,129.7,400.31,64.6,364.222,63.965,298.249,91.783,297.6,127.392Z" transform="translate(-296.918 -63.288)" fill="#1a1a1a"/></g><g transform="translate(0.006 0.03)"><g transform="translate(15.211)"><g transform="translate(0.871 0.355)"><path d="M370.866,63.8a7.127,7.127,0,0,1-4.21,3.889,9.494,9.494,0,0,1-9.886-2.746,64.89,64.89,0,0,0-38.3,23.607,13.5,13.5,0,0,1,10,1.887s-5.88.588-5.626,5.3,5.365.1,7.818,3.8,6.728-1.1,3.755-3.763.446-6.436,3.1-4.645,3.1,5.283,1.525,8.911,4.311,2.867,5.764,6.2a8.682,8.682,0,0,1-.114,6.616l4.564-3.631a2.829,2.829,0,0,1,3.868.31l1.138,1.235s-2.755.733-2.96,2.906,4.589,1.392,4.705,4.355,4.3,3.389,4.707-.61,2.509-4.482,2.509-4.482-.6-4.017-4.458-4.089-2.695-4.228-2.695-4.228a2.939,2.939,0,0,1-2.11-4.134c1.15-3.463-5.241-7.325,2.692-10.226s5.06-6.525,5.06-6.525l-3.839-1.116s5.984-1.718,5.966-5.55,6.561-6.062,7.964.147-2.061,8.061-2.061,8.061,4.359-.268,4.314,2.344-3.595,4.2-3.595,4.2.415,5.145-1.941,5.625-2.057-2.3-2.057-2.3-4.188-.252-3.151,2.815-.158,9.228-.158,9.228,3.9,2.249,3.251,5.982-1.88,7.716,2.685,10.064,4.243,6.436,4.243,6.436l4.577,5.339s-1.507,3.107.934,4.2,2.957-2.848,9.288-.408,8.359,1.548,9.276.288c0,0,5.114,1.721,7.352-4.856,0,0,4.421-3.518,1.73-9.606,0,0,2.936-3.429,1.063-7.412s.54-7.769,2.666-7.846c0,0-.824-4.079,2.3-3.905s2.395,3.76,2.395,3.76,4.446-4.941,9.532-1.58c0,0-.444,6.277,3.029,5.877a8.337,8.337,0,0,1,4.805,1.449C425.31,86.253,400.666,64.706,370.866,63.8Z" transform="translate(-318.468 -63.803)" fill="#fff"/></g><path d="M432.533,115.559l-.683-.4a7.816,7.816,0,0,0-4.606-1.4,2.394,2.394,0,0,1-2.063-.685c-1.4-1.4-1.382-4.5-1.352-5.351-4.718-2.953-8.774,1.44-8.946,1.63l-.818.906.244-1.215a3.722,3.722,0,0,0-.411-2.553,2.11,2.11,0,0,0-1.675-.786,1.723,1.723,0,0,0-1.532.551c-.807.974-.43,2.915-.426,2.935l.081.4-.4.015a3.07,3.07,0,0,0-2.273,1.726,6.069,6.069,0,0,0-.1,5.619,7.577,7.577,0,0,1-.975,7.616,8.362,8.362,0,0,1-1.837,9.76c-2.061,5.917-6.464,5.288-7.516,5.043-1.451,1.73-4.408,1.616-9.523-.354-3.724-1.433-5.309-.612-6.584.048a2.826,2.826,0,0,1-2.726.354,2.536,2.536,0,0,1-1.433-1.5,4.482,4.482,0,0,1,.236-2.954l-4.53-5.28.011-.149c.009-.154.236-3.887-4.061-6.1-4.394-2.259-3.68-6.079-3.048-9.45.061-.331.123-.661.18-.989.6-3.445-3.049-5.594-3.086-5.616l-.215-.123.048-.25c.011-.06,1.167-6.1.171-9.044a2.283,2.283,0,0,1,.172-2.162c.9-1.247,3.22-1.123,3.317-1.117l.352.022-.038.364a2.4,2.4,0,0,0,.444,1.7,1.31,1.31,0,0,0,1.216.222c1.693-.343,1.779-3.911,1.673-5.254l-.021-.249.222-.1c.033-.015,3.353-1.533,3.394-3.887a1.437,1.437,0,0,0-.43-1.1c-1.036-1.032-3.507-.894-3.532-.892l-1.586.1,1.413-.756c.13-.071,3.209-1.828,1.889-7.671-.562-2.488-2.085-3.828-4.073-3.583a3.577,3.577,0,0,0-3.234,3.354c0,.03,0,.06,0,.09-.051,3-3.406,4.73-5.169,5.43l2.9.842.067.084a3.12,3.12,0,0,1,.476,2.628c-.468,1.742-2.381,3.239-5.687,4.446-2.026.741-3.216,1.581-3.638,2.57-.457,1.072.024,2.256.532,3.51.52,1.282,1.058,2.607.618,3.931a2.563,2.563,0,0,0,1.859,3.678l.357.074-.1.364a3.984,3.984,0,0,0,.3,2.894,2.453,2.453,0,0,0,2.085.89c4.094.076,4.781,4.34,4.787,4.383l.049.323-.308.071c-.074.018-1.879.514-2.249,4.178-.232,2.288-1.635,3.269-2.922,3.227a2.6,2.6,0,0,1-2.457-2.639c-.052-1.344-1.234-1.781-2.483-2.246-1.153-.429-2.34-.867-2.224-2.158a3.931,3.931,0,0,1,2.688-3.029l-.773-.838a2.5,2.5,0,0,0-3.425-.273l-5.707,4.538.635-1.337a8.388,8.388,0,0,0,.109-6.319c-.587-1.345-1.972-1.969-3.311-2.572-1.167-.525-2.27-1.021-2.631-1.99a2.523,2.523,0,0,1,.174-1.927c1.558-3.594,1.021-6.841-1.4-8.476a2.366,2.366,0,0,0-3.269.645,2.458,2.458,0,0,0,.57,3.445,3.18,3.18,0,0,1,1.014,3.281,3.308,3.308,0,0,1-2.459,2.409,2.741,2.741,0,0,1-2.808-1.467c-1.058-1.6-2.652-1.492-4.193-1.391-1.131.074-2.2.144-2.919-.519a2.9,2.9,0,0,1-.769-2.071c-.209-3.8,3.3-5.087,5.016-5.493a13.292,13.292,0,0,0-9.007-1.365l-.881.149.567-.714a65.366,65.366,0,0,1,38.523-23.728l.18-.035.126.138a9.15,9.15,0,0,0,9.56,2.65,6.777,6.777,0,0,0,4.006-3.719l.1-.19.207.007c29.229.885,54.63,22.035,61.772,51.433Zm-8.038-7.6c-.017.99.055,3.507,1.152,4.6a1.744,1.744,0,0,0,1.523.493,7.676,7.676,0,0,1,4.328,1.109C424.193,85.541,399.341,65,370.754,64.037a7.31,7.31,0,0,1-4.319,3.87,9.888,9.888,0,0,1-10.1-2.7,64.657,64.657,0,0,0-37.4,22.759,13.519,13.519,0,0,1,9.377,2.065l.815.542-.964.1c-.227.023-5.557.618-5.327,4.929a2.264,2.264,0,0,0,.544,1.589c.511.47,1.4.412,2.432.345,1.566-.1,3.516-.231,4.788,1.69a2.142,2.142,0,0,0,2.146,1.175,2.606,2.606,0,0,0,1.922-1.91,2.454,2.454,0,0,0-.807-2.566,3.158,3.158,0,0,1-.668-4.39,3.016,3.016,0,0,1,4.171-.811c2.72,1.834,3.351,5.416,1.648,9.346a1.859,1.859,0,0,0-.161,1.389c.26.7,1.238,1.138,2.273,1.6,1.388.624,2.961,1.333,3.654,2.924a8.667,8.667,0,0,1,.3,5.752l3.647-2.9a3.156,3.156,0,0,1,4.318.345l1.535,1.665-.554.149c-.026.007-2.532.7-2.712,2.6-.062.711.634,1.006,1.781,1.433,1.273.472,2.857,1.06,2.928,2.873a1.9,1.9,0,0,0,1.808,1.971c.906.03,2.035-.634,2.234-2.6.334-3.306,1.8-4.359,2.456-4.668a4.276,4.276,0,0,0-4.079-3.518,3.072,3.072,0,0,1-2.614-1.175,4.324,4.324,0,0,1-.475-3.156,3.484,3.484,0,0,1-1.928-1.524,3.613,3.613,0,0,1-.1-2.97c.356-1.074-.11-2.219-.6-3.434-.542-1.334-1.1-2.714-.527-4.063.5-1.174,1.818-2.136,4.029-2.944,3.845-1.405,4.984-2.938,5.263-3.976a2.424,2.424,0,0,0-.291-1.917L356.308,82.5l1.161-.334c.057-.017,5.663-1.67,5.723-5.142,0-.051,0-.1,0-.155a4.277,4.277,0,0,1,3.826-3.966c1.822-.224,4.042.74,4.8,4.116,1.015,4.491-.419,6.8-1.419,7.805a4.95,4.95,0,0,1,3.045,1.073,2.139,2.139,0,0,1,.636,1.613c-.042,2.441-2.776,4-3.582,4.409.053,1.079.1,5.277-2.229,5.751a1.92,1.92,0,0,1-1.8-.395,2.736,2.736,0,0,1-.668-1.906,3.288,3.288,0,0,0-2.415.846,1.6,1.6,0,0,0-.074,1.511c.951,2.807.112,7.976-.1,9.17.84.549,3.814,2.762,3.21,6.217-.058.331-.12.664-.183,1-.642,3.43-1.247,6.67,2.688,8.694a7.533,7.533,0,0,1,4.436,6.619l4.643,5.413-.1.212a4.047,4.047,0,0,0-.3,2.624,1.852,1.852,0,0,0,1.067,1.1c.812.362,1.349.084,2.161-.337,1.317-.682,3.121-1.616,7.116-.078,6.436,2.478,8.16,1.418,8.9.405l.143-.2.227.076c.2.064,4.837,1.524,6.936-4.642l.033-.1.079-.063c.172-.137,4.175-3.433,1.631-9.184l-.091-.206.145-.17a6.828,6.828,0,0,0,1.013-7.028,6.788,6.788,0,0,1,.132-6.284,3.991,3.991,0,0,1,2.452-2.017,4.419,4.419,0,0,1,.629-3.156,2.368,2.368,0,0,1,2.079-.8,2.743,2.743,0,0,1,2.173,1.061,3.708,3.708,0,0,1,.617,2.193c1.465-1.247,5.2-3.732,9.307-1.021l.169.112-.015.208C424.51,107.559,424.5,107.712,424.5,107.962Z" transform="translate(-317.301 -63.328)" fill="#1a1a1a"/></g><g transform="translate(52.179 99.226)"><g transform="translate(0.357 0.382)"><path d="M419.207,208.159c.7,7.211-9.963,9.346-9.963,9.346s-.562,4.983-6.214,4.3-9.154,3.787-9.154,3.787-9.55-.4-11.607,2.467-6.646,2.554-6.646,2.554-4.473-1.007-.975,1.26c1.46.946,1.866,1.871,1.851,2.631a70.57,70.57,0,0,0,7.921.589,69.417,69.417,0,0,0,38.748-10.911c-.707-1.746.466-4.009,3.872-5.554,6.9-3.13,4.252-6.776,4.252-6.776s-5.186-.323-3.827-3.666-.525-3.609-.525-3.609C424.974,208.957,419.207,208.159,419.207,208.159Z" transform="translate(-373.311 -204.579)" fill="#fff"/></g><path d="M432.025,213.509a3.6,3.6,0,0,1-.127.882c-.455,1.689-2.08,3.179-4.83,4.426-3.361,1.525-4.276,3.664-3.693,5.11l.107.265-.243.156a69.761,69.761,0,0,1-38.947,10.967,71.511,71.511,0,0,1-7.961-.592l-.314-.04.007-.312v0c.014-.81-.555-1.594-1.692-2.33-1.236-.8-1.646-1.285-1.454-1.728.075-.174.305-.7,2.7-.164h0s4.364.252,6.278-2.415c2.008-2.8,10.36-2.661,11.733-2.62a10.969,10.969,0,0,1,9.361-3.778,5.363,5.363,0,0,0,4.055-.885,5.089,5.089,0,0,0,1.763-3.112l.03-.252.252-.052c.1-.02,10.349-2.152,9.681-8.972l-.042-.438.443.06c.055.007,5.528.705,7.362-3.376l.108-.241.265.037a1.552,1.552,0,0,1,1.046.75c.437.742.355,1.864-.243,3.333a1.787,1.787,0,0,0,.034,1.73c.682,1.062,2.748,1.414,3.487,1.46l.168.01.1.134A3.5,3.5,0,0,1,432.025,213.509Zm-9.526,9.473c.028-1.517,1.131-3.372,4.272-4.8,2.506-1.136,4.041-2.5,4.44-3.958a2.893,2.893,0,0,0-.246-2.169c-.677-.069-2.978-.4-3.856-1.768a2.463,2.463,0,0,1-.093-2.361c.632-1.554.51-2.333.3-2.711a.9.9,0,0,0-.311-.328c-1.825,3.551-6.154,3.6-7.533,3.521.24,6.532-8.459,8.877-10.033,9.252a5.689,5.689,0,0,1-1.981,3.328,6.042,6.042,0,0,1-4.587,1.033c-5.377-.646-8.8,3.613-8.832,3.655l-.112.143-.183-.008c-.093,0-9.38-.36-11.3,2.32-2.147,2.992-6.762,2.714-6.958,2.7a7.53,7.53,0,0,0-1.846-.216,5.657,5.657,0,0,0,1.09.838,3.809,3.809,0,0,1,1.995,2.614,70.645,70.645,0,0,0,7.589.549,69.051,69.051,0,0,0,38.318-10.707A3.062,3.062,0,0,1,422.5,222.982Z" transform="translate(-372.833 -204.067)" fill="#1a1a1a"/></g><g transform="translate(0 59.794)"><g transform="translate(0.354 2.154)"><path d="M297.4,154.134a67.466,67.466,0,0,0,29.978,56.326c-.2-.235-3.073-3.815,4.768-1.88a13.7,13.7,0,0,0-5.316-6.6c-4.187-2.86-6.016-6.143-3.522-7.029,0,0-3.981-1.7-2.157-4.682l2.477.044a3.685,3.685,0,0,0-1.087-5.129s-1.813,2.407-3.911.976-2.364-6.311,1.3-6.479,3.732,2.387,3.732,2.387,3.212-1.453.576-5.679-7-1.052-7-1.052a6.31,6.31,0,0,1-6.468-4.642l-.723,1.745a.761.761,0,0,1-1.386.034c-.481-1-1.253-2.022-2.373-1.859-2.129.311-.888,3.468,1.887,6.535a5.228,5.228,0,0,1,.474,6.4s-.261-2.77-4.034-5.3-4.063-10.173.167-9.17l-1.2-3a.472.472,0,0,1,.753-.521l3.062,2.643s2.974-1.341-1.551-5.6-4.394-6.928-3.824-8.079c0,0-1.81-.032-2.232,3.677C299.575,160.068,298.457,157.32,297.4,154.134Z" transform="translate(-297.4 -154.134)" fill="#fff"/></g><path d="M332.543,208.337l-.6-.149c-3.937-.971-4.764-.452-4.936-.183-.232.361.189,1.1.528,1.5l1.575,1.892-2.049-1.384A67.843,67.843,0,0,1,296.927,153.4l.012-2.152.679,2.046a22.247,22.247,0,0,0,1.685,4.23c0-.029.009-.061.013-.1.452-3.978,2.5-3.988,2.59-3.987l.555.01-.243.491c-.328.662-1.026,3.178,3.751,7.675,1.933,1.82,2.8,3.38,2.587,4.65a2.118,2.118,0,0,1-1.134,1.519l-.208.094-3.233-2.791a.113.113,0,0,0-.149-.008.107.107,0,0,0-.043.14l1.452,3.629-.661-.158a1.813,1.813,0,0,0-2.312,1.074c-.911,2.023.032,5.866,2.428,7.47a9.659,9.659,0,0,1,3.949,4.617,4.674,4.674,0,0,0-.853-5.2c-1.794-1.983-3.508-4.65-2.947-6.173a1.464,1.464,0,0,1,1.272-.938c.751-.11,1.836.157,2.745,2.055a.4.4,0,0,0,.738-.017l1.091-2.632.3.912a5.915,5.915,0,0,0,6.006,4.409,6.312,6.312,0,0,1,4.354-1.076,4.635,4.635,0,0,1,3.071,2.285,5.157,5.157,0,0,1,.944,4.214,3.345,3.345,0,0,1-1.673,1.963l-.486.219-.015-.526a2.057,2.057,0,0,0-.68-1.335,3.657,3.657,0,0,0-2.682-.714,2.362,2.362,0,0,0-2.349,1.788,3.92,3.92,0,0,0,1.237,4.058c1.788,1.218,3.359-.812,3.426-.9l.219-.288.286.223a4.049,4.049,0,0,1,1.157,5.6l-.108.153-2.455-.043a2.239,2.239,0,0,0-.228,1.8,4.574,4.574,0,0,0,2.321,2.208l.82.348-.84.3a1.158,1.158,0,0,0-.887.933c-.146,1.1,1.184,3.224,4.491,5.482a13.927,13.927,0,0,1,5.453,6.783Zm-6.312-.107a1.12,1.12,0,0,1,.176-.6c.54-.838,2.152-.929,5.05-.275a14.044,14.044,0,0,0-4.947-5.816c-3.122-2.132-5-4.553-4.789-6.144a1.686,1.686,0,0,1,.711-1.173,4.609,4.609,0,0,1-2.1-2.312,2.979,2.979,0,0,1,.395-2.548l.105-.172,2.478.044a3.279,3.279,0,0,0-.845-4.283,3.135,3.135,0,0,1-4.158.769,4.6,4.6,0,0,1-1.514-4.822,3.091,3.091,0,0,1,3-2.292,4.307,4.307,0,0,1,3.206.909,2.8,2.8,0,0,1,.791,1.253,2.615,2.615,0,0,0,.9-1.287,4.539,4.539,0,0,0-.873-3.636,3.959,3.959,0,0,0-2.6-1.965,5.775,5.775,0,0,0-3.888,1.01l-.078.057-.1.01a6.678,6.678,0,0,1-6.517-4.034l-.383.923a1.117,1.117,0,0,1-2.034.051c-.4-.833-1.071-1.8-2-1.663-.5.073-.646.313-.711.487-.365.991.791,3.241,2.811,5.472a5.614,5.614,0,0,1,.5,6.822l-.554.8-.091-.964c0-.025-.311-2.65-3.88-5.041-2.735-1.83-3.7-6.051-2.677-8.327a2.466,2.466,0,0,1,2.489-1.563l-.979-2.445a.8.8,0,0,1,.293-.964.826.826,0,0,1,1.023.053l2.864,2.473a1.4,1.4,0,0,0,.549-.9c.113-.7-.2-1.969-2.38-4.018-4.058-3.819-4.415-6.387-4.145-7.743-.467.339-1.09,1.156-1.314,3.128-.03.26-.1.868-.573.915-.316.032-.7.07-1.788-2.867a67.149,67.149,0,0,0,28.619,53.07A1.619,1.619,0,0,1,326.23,208.229Z" transform="translate(-296.926 -151.249)" fill="#1a1a1a"/></g><g transform="translate(5.15 50.502)"><g transform="translate(0.458 0.44)"><path d="M304.437,144.991s3.844,2.738,6.441,9.17,7.829,4.2,8.021.141c0,0-3.8,1.443-4.265-5.532a28.041,28.041,0,0,0-4.373-12.618l-4.114-.885S306.634,140.965,304.437,144.991Z" transform="translate(-304.437 -135.267)" fill="#fff"/></g><path d="M319.121,153.642l-.023.527a4.317,4.317,0,0,1-3.382,4.188c-2.125.35-4.114-1.226-5.322-4.217-2.529-6.266-6.281-8.99-6.319-9.017l-.251-.178.146-.268c2.122-3.89,1.673-9.473,1.669-9.53l-.04-.47,4.72,1.015.079.114a28.663,28.663,0,0,1,4.434,12.791c.17,2.57.836,4.293,1.925,4.987a2.229,2.229,0,0,0,1.861.243Zm-14.389-8.9a22.653,22.653,0,0,1,6.32,9.139c1.075,2.663,2.775,4.079,4.547,3.787a3.538,3.538,0,0,0,2.745-3.071,2.94,2.94,0,0,1-1.957-.421c-1.311-.824-2.072-2.687-2.261-5.534a27.9,27.9,0,0,0-4.237-12.331l-3.516-.756C306.438,136.981,306.471,141.338,304.732,144.744Z" transform="translate(-303.824 -134.677)" fill="#1a1a1a"/></g><g transform="translate(0.035 33.963)"><g transform="translate(0.41 1.113)"><path d="M297.521,138.149c1.767-.876,3.53-2.632,4.167-6.117,1.441-7.871,5.778-6.285,5.778-6.285l-.514-4.19-2.688-1.44a16.356,16.356,0,0,0,.806-7.237A66.615,66.615,0,0,0,297.521,138.149Z" transform="translate(-297.521 -112.88)" fill="#fff"/></g><path d="M307.748,125.894l-.544-.2a2.952,2.952,0,0,0-2.312.3c-1.422.808-2.457,2.785-2.994,5.719-.562,3.068-2.028,5.21-4.357,6.367l-.569.282.057-.625a66.739,66.739,0,0,1,7.589-25.4l.506-.951.158,1.062a16.432,16.432,0,0,1-.725,7.122l2.585,1.386ZM297.8,137.139a7.8,7.8,0,0,0,3.4-5.548c.586-3.2,1.714-5.287,3.355-6.207a3.763,3.763,0,0,1,2.36-.463l-.432-3.522-2.8-1.5.107-.284a16.691,16.691,0,0,0,.9-5.893A66.023,66.023,0,0,0,297.8,137.139Z" transform="translate(-296.972 -111.389)" fill="#1a1a1a"/></g><g transform="translate(29.734 40.023)"><g transform="translate(0.354 0.347)"><path d="M339.321,125.574a1.59,1.59,0,0,0,2.189,1.257,16.314,16.314,0,0,0,2.187-1.147c3.043-1.863,5.277,1.785,5.277,1.785s2.122-6.416-2.167-7.362c-3.83-.845-3.317,2.6-6.4,3.66a1.577,1.577,0,0,0-1.1,1.669Z" transform="translate(-339.291 -119.975)" fill="#fff"/></g><path d="M349.734,124.223a12.184,12.184,0,0,1-.543,3.236l-.239.723-.4-.65a5.043,5.043,0,0,0-2.632-2.076,2.8,2.8,0,0,0-2.155.406,16.729,16.729,0,0,1-2.237,1.172,1.938,1.938,0,0,1-1.713-.1,1.912,1.912,0,0,1-.966-1.432l-.017-.136a1.92,1.92,0,0,1,1.336-2.042,5,5,0,0,0,2.386-1.96c.861-1.109,1.75-2.255,4.211-1.713a3.439,3.439,0,0,1,2.343,1.654A5.668,5.668,0,0,1,349.734,124.223Zm-1.029,2.333c.271-1.136.649-3.421-.214-4.91a2.722,2.722,0,0,0-1.882-1.317c-2.018-.446-2.636.352-3.492,1.455a5.649,5.649,0,0,1-2.714,2.195,1.228,1.228,0,0,0-.868,1.3l.017.137a1.236,1.236,0,0,0,1.7.979,16.043,16.043,0,0,0,2.139-1.123,3.494,3.494,0,0,1,2.7-.491A5.147,5.147,0,0,1,348.705,126.556Z" transform="translate(-338.817 -119.51)" fill="#1a1a1a"/></g><g transform="translate(15.171 50.68)"><g transform="translate(0.354 0.349)"><path d="M317.735,137.615c.24,2.587,4.274,2.244,4.079-.346,0-.031-.005-.062-.008-.093-.3-3.14-3.47-2.847-3.99-.65A3.344,3.344,0,0,0,317.735,137.615Z" transform="translate(-317.721 -134.848)" fill="#fff"/></g><path d="M322.055,137.38a2.41,2.41,0,0,1-4.793.149h0a3.744,3.744,0,0,1,.089-1.2,2.433,2.433,0,0,1,2.479-1.943c.953.064,2.034.791,2.208,2.64l.009.1C322.053,137.213,322.056,137.3,322.055,137.38Zm-4.087.086a1.572,1.572,0,0,0,1.813,1.453,1.593,1.593,0,0,0,1.56-1.741l-.007-.084c-.113-1.2-.694-1.956-1.552-2.013a1.728,1.728,0,0,0-1.742,1.406,3.016,3.016,0,0,0-.072.979Z" transform="translate(-317.247 -134.38)" fill="#1a1a1a"/></g><g transform="translate(33.504 119.42)"><g transform="translate(1 0.348)"><path d="M356.443,234.083s1.373-2.5-3.494-2.5c-2.866,0-4.563,1.468-7.45,2.091q1.074.578,2.169,1.121C347.681,234.79,353.021,232.718,356.443,234.083Z" transform="translate(-345.499 -231.583)" fill="#1a1a1a"/></g><path d="M356.636,233.254a2.065,2.065,0,0,1-.22.876l-.151.275-.294-.117c-3.215-1.282-8.3.631-8.511.713l-.146.056-.143-.068q-1.1-.544-2.181-1.127l-.83-.447.924-.2a18.052,18.052,0,0,0,3.027-1,11.359,11.359,0,0,1,4.5-1.1c2.011,0,3.288.423,3.795,1.259A1.605,1.605,0,0,1,356.636,233.254Zm-.744.264a1.038,1.038,0,0,0-.1-.79c-.257-.417-1.018-.915-3.183-.915a10.8,10.8,0,0,0-4.231,1.044,23.455,23.455,0,0,1-2.256.814q.61.318,1.227.626C348.234,233.979,352.707,232.479,355.891,233.518Z" transform="translate(-344.16 -231.117)" fill="#1a1a1a"/></g><g transform="translate(46.15 117.784)"><g transform="translate(0.354 0.349)"><path d="M364.182,229.393c1.05.018,1.893.521,1.882,1.123s-.871,1.075-1.922,1.057-1.893-.522-1.882-1.124S363.131,229.374,364.182,229.393Z" transform="translate(-362.26 -229.392)" fill="#1a1a1a"/></g><path d="M366.3,230.4c-.015.806-1.017,1.421-2.282,1.4s-2.244-.671-2.23-1.478,1.017-1.42,2.282-1.4S366.312,229.6,366.3,230.4Zm-3.8-.067c-.006.35.649.754,1.535.769s1.555-.364,1.562-.714-.649-.753-1.535-.769S362.5,229.987,362.494,230.337Z" transform="translate(-361.786 -228.925)" fill="#1a1a1a"/></g><g transform="translate(33.403 48.039)"><g transform="translate(0.354 0.348)"><path d="M346.184,131.111a1.584,1.584,0,1,1-1.842,1.535A1.7,1.7,0,0,1,346.184,131.111Z" transform="translate(-344.342 -131.111)" fill="#fff"/></g><path d="M348.2,132.6a2.185,2.185,0,1,1-2.133-1.953A2.057,2.057,0,0,1,348.2,132.6Zm-3.628-.064a1.484,1.484,0,1,0,1.482-1.192A1.357,1.357,0,0,0,344.576,132.534Z" transform="translate(-343.868 -130.644)" fill="#1a1a1a"/></g><g transform="translate(83.754 74.737)"><g transform="translate(0.354 0.348)"><path d="M416.942,168.516a1.511,1.511,0,1,1-1.84,1.448A1.672,1.672,0,0,1,416.942,168.516Z" transform="translate(-415.102 -168.516)" fill="#fff"/></g><path d="M418.963,169.916a2.2,2.2,0,1,1-2.134-1.866A2.023,2.023,0,0,1,418.963,169.916Zm-3.628-.064a1.508,1.508,0,1,0,1.48-1.106A1.329,1.329,0,0,0,415.336,169.852Z" transform="translate(-414.628 -168.049)" fill="#1a1a1a"/></g><g transform="translate(80.829 77.017)"><g transform="translate(0.354 0.348)"><path d="M412.154,171.694a1.265,1.265,0,1,1-1.214,1.242A1.228,1.228,0,0,1,412.154,171.694Z" transform="translate(-410.94 -171.694)" fill="#fff"/></g><path d="M413.555,172.866a1.546,1.546,0,1,1-1.515-1.638A1.582,1.582,0,0,1,413.555,172.866Zm-2.382-.042a.84.84,0,1,0,.853-.9A.878.878,0,0,0,411.174,172.824Z" transform="translate(-410.466 -171.228)" fill="#1a1a1a"/></g><g transform="translate(56.703 24.797)"><g transform="translate(0.564 0.349)"><path d="M379.568,102.04a2.852,2.852,0,0,0,2.285-3.087h0a1.757,1.757,0,0,0-2.611.412,2.125,2.125,0,0,1-1.843,1.251l.2.443A1.748,1.748,0,0,0,379.568,102.04Z" transform="translate(-377.399 -98.547)" fill="#fff"/></g><path d="M382.019,98.675l0,.166a3.209,3.209,0,0,1-2.559,3.42h0a2.107,2.107,0,0,1-2.37-1.177l-.443-.971.587.038c.55.035,1.06-.328,1.518-1.083a2.059,2.059,0,0,1,1.43-.959,2.137,2.137,0,0,1,1.713.459Zm-2.721,2.907a2.479,2.479,0,0,0,2-2.577,1.424,1.424,0,0,0-1.008-.208,1.351,1.351,0,0,0-.94.629,2.71,2.71,0,0,1-1.622,1.373h0a1.393,1.393,0,0,0,1.565.783Z" transform="translate(-376.643 -98.08)" fill="#1a1a1a"/></g><g transform="translate(26.328 90.46)"><g transform="translate(0.564 0.349)"><path d="M336.865,194.066a2.85,2.85,0,0,0,2.285-3.087h0a1.757,1.757,0,0,0-2.611.412,2.123,2.123,0,0,1-1.844,1.251l.2.444A1.748,1.748,0,0,0,336.865,194.066Z" transform="translate(-334.695 -190.574)" fill="#1a1a1a"/></g><path d="M339.315,190.7l0,.166a3.208,3.208,0,0,1-2.56,3.421h0a2.107,2.107,0,0,1-2.37-1.177l-.444-.972.588.038c.549.035,1.06-.328,1.516-1.083a2.063,2.063,0,0,1,1.43-.959,2.139,2.139,0,0,1,1.713.458Zm-2.72,2.908a2.48,2.48,0,0,0,2-2.578,1.424,1.424,0,0,0-1.008-.208,1.354,1.354,0,0,0-.939.629,2.709,2.709,0,0,1-1.623,1.373h0a1.392,1.392,0,0,0,1.566.784Z" transform="translate(-333.939 -190.107)" fill="#1a1a1a"/></g><g transform="translate(122.029 51.441)"><g transform="translate(0.353 0.335)"><path d="M469.468,137.992a.515.515,0,0,0,.3.912,7.225,7.225,0,0,1,4.952,2.228c1.822,1.987.686,3.328-.079,3.917a.5.5,0,0,0-.049.764c2.733,2.751,3.9,9.784,3.949,10.09.135-1.548.222-3.109.252-4.685a67.114,67.114,0,0,0-1-12.812C474.277,135,471.035,136.726,469.468,137.992Z" transform="translate(-469.278 -136.415)" fill="#fff"/></g><path d="M479.031,151.111c-.028,1.519-.113,3.1-.253,4.708l-.246,2.818-.456-2.793c-.048-.293-1.207-7.238-3.853-9.9a.838.838,0,0,1-.25-.661.862.862,0,0,1,.334-.62,2.164,2.164,0,0,0,.918-1.452,2.642,2.642,0,0,0-.882-1.957,6.835,6.835,0,0,0-4.71-2.115.874.874,0,0,1-.785-.6.85.85,0,0,1,.276-.93h0a6.2,6.2,0,0,1,8.8.435l.082.079.019.11A67.748,67.748,0,0,1,479.031,151.111Zm-.782,2.1q.055-1.072.074-2.111a67.051,67.051,0,0,0-.973-12.635,5.45,5.45,0,0,0-7.777-.317.152.152,0,0,0-.051.178.164.164,0,0,0,.153.116,7.541,7.541,0,0,1,5.193,2.343,3.343,3.343,0,0,1,1.062,2.485,2.834,2.834,0,0,1-1.187,1.94.162.162,0,0,0-.013.246C476.531,147.269,477.653,150.783,478.249,153.209Z" transform="translate(-468.805 -135.967)" fill="#1a1a1a"/></g><g transform="translate(10.067 25.441)"><g transform="translate(1.347 0.415)"><path d="M312.214,103.807c1.61-1.161,3.58-2.119,5.5-1.86a.352.352,0,0,0,.3-.594,7.276,7.276,0,0,0-2.768-1.791Q313.653,101.624,312.214,103.807Z" transform="translate(-312.214 -99.562)" fill="#fff"/></g><path d="M318.018,101.467a.707.707,0,0,1-.809.682c-1.539-.207-3.3.4-5.244,1.8l-1.556,1.124,1.05-1.593c.963-1.46,1.99-2.9,3.054-4.267l.158-.2.245.088a7.642,7.642,0,0,1,2.9,1.878A.7.7,0,0,1,318.018,101.467Zm-5.022,1a7.045,7.045,0,0,1,4.31-1,6.844,6.844,0,0,0-2.39-1.62C314.259,100.695,313.617,101.573,313,102.464Z" transform="translate(-310.41 -99.006)" fill="#1a1a1a"/></g><g transform="translate(63.282 115.612)"><g transform="translate(0.168 0.348)"><path d="M386.224,230.026a20.547,20.547,0,0,1,7.906-.906s-.75-3.265-5.248-2.531C388.882,226.589,389.8,228.114,386.224,230.026Z" transform="translate(-386.224 -226.481)" fill="#fff"/></g><path d="M394.533,229.422l-.512-.075a20.257,20.257,0,0,0-7.741.892L386,229.6c3.153-1.686,2.524-2.946,2.517-2.961l-.228-.426.479-.087c4.772-.778,5.642,2.762,5.651,2.8Zm-6.437-.381a18.727,18.727,0,0,1,5.442-.453c-.385-.773-1.474-2.149-4.264-1.828a1.754,1.754,0,0,1-.061.7A3.41,3.41,0,0,1,388.1,229.04Z" transform="translate(-385.999 -226.015)" fill="#1a1a1a"/></g></g><g transform="translate(45.339 9.745)"><g transform="translate(0.783 0.353)"><path d="M368.584,80.308s2.633,1.226,1.27,3.192-5.418,1.085-8.043-.583c0,0,3.653-1.337,1.4-4.031S369.112,75.6,368.584,80.308Z" transform="translate(-361.811 -76.813)" fill="#fff"/></g><path d="M370.334,82.3a2.314,2.314,0,0,1-.454,1.274c-1.548,2.234-5.946,1.153-8.526-.487l-.591-.376.659-.243c.016-.006,1.563-.588,1.856-1.668a2.028,2.028,0,0,0-.6-1.816c-.724-.865-.465-1.5-.244-1.8.638-.871,2.482-1.113,4.025-.529a3.189,3.189,0,0,1,2.237,3.331,3.293,3.293,0,0,1,1.574,1.772A1.907,1.907,0,0,1,370.334,82.3Zm-8.046.529c2.583,1.433,5.917,1.926,7.007.353a1.441,1.441,0,0,0,.286-1.24,2.787,2.787,0,0,0-1.414-1.44l-.228-.107.028-.247a2.551,2.551,0,0,0-1.767-2.84c-1.317-.5-2.8-.255-3.2.286q-.269.368.217.95a2.668,2.668,0,0,1,.741,2.44A3.314,3.314,0,0,1,362.288,82.832Z" transform="translate(-360.762 -76.341)" fill="#1a1a1a"/></g><g transform="translate(71.668 3.52)"><g transform="translate(0.355 0.383)"><path d="M414.182,68.516c-.056.036-3.769,2.373-7.362,1.941-3.62-.434-11.935-.645-5.4,4.727,0,0,10.009-5.507,19.2-4.157A69.1,69.1,0,0,0,414.182,68.516Z" transform="translate(-398.99 -68.516)" fill="#fff"/></g><path d="M422.955,71.609l-2.5-.367c-8.966-1.317-18.88,4.061-18.979,4.116l-.214.117-.187-.154c-2.087-1.715-2.885-3.038-2.444-4.047.879-2,6.429-1.495,8.109-1.293,3.435.412,6.979-1.795,7.129-1.888l.143-.09.16.053c2.142.711,4.322,1.56,6.479,2.524Zm-21.607,3.027c1.392-.721,9.215-4.569,17.009-4.281-1.422-.585-2.844-1.115-4.251-1.586-.747.442-4.126,2.3-7.45,1.9-3.2-.384-6.868-.272-7.374.879C399.118,71.922,399.182,72.812,401.348,74.635Z" transform="translate(-398.515 -68.003)" fill="#1a1a1a"/></g></g><g transform="translate(92.581 140.575)"><g transform="translate(28.733)"><path d="M436.984,237.673c-1.932,1.136-3.96,2.195-6.027,3.15l-.3-.632c2.046-.944,4.053-1.993,5.964-3.117Z" transform="translate(-430.656 -237.074)" fill="#3e3f3f"/></g><g transform="translate(0 4.352)"><path d="M418.327,243.547a70.244,70.244,0,0,1-26.159,5.314l.028-.7a69.522,69.522,0,0,0,25.861-5.261Z" transform="translate(-392.168 -242.904)" fill="#3e3f3f"/></g></g><g transform="translate(55.756 12.615)"><g transform="translate(17.179)"><path d="M411.3,63.869l-.34.611a64.126,64.126,0,0,0-32.589-5.719,74.658,74.658,0,0,0-13.663,2.416l-.191-.67a75.253,75.253,0,0,1,13.8-2.44A64.867,64.867,0,0,1,411.3,63.869Z" transform="translate(-364.515 -57.846)" fill="#1a1a1a"/></g><g transform="translate(0 4.243)"><path d="M353.9,64.185a54.377,54.377,0,0,0-11.986,5.779L341.5,69.4a55.051,55.051,0,0,1,12.159-5.869Z" transform="translate(-341.504 -63.53)" fill="#1a1a1a"/></g></g><g transform="translate(0.709 0)"><g transform="translate(24.925 12.212)"><path d="M313.957,198.345a12.88,12.88,0,0,1-8.1-2.414c-6.752-5.24-6.062-17.974,1.943-35.852l.682.282c-7.747,17.3-8.533,30.066-2.158,35.016,12.654,9.819,49.29-12.484,81.664-49.728,25.568-29.414,41.617-60.239,39.935-76.7-.4-3.889-1.8-6.8-4.177-8.639-5.779-4.485-16.892-2.368-31.293,5.965l-.384-.611c14.688-8.5,26.1-10.6,32.144-5.908,2.535,1.968,4.033,5.037,4.45,9.124,1.7,16.643-14.418,47.679-40.105,77.231C361.225,177.555,330.752,198.344,313.957,198.345Z" transform="translate(-301.253 -57.307)" fill="#1a1a1a"/></g><g transform="translate(0 49.771)"><path d="M391.258,178.385a242,242,0,0,1-44.249-4.4c-38.643-7.3-71.026-21.871-80.582-36.267-2.295-3.457-3.171-6.794-2.6-9.917,1.5-8.255,12.779-14.02,31.757-16.234l.08.739c-18.367,2.143-29.715,7.84-31.132,15.632-.531,2.921.306,6.07,2.489,9.358,9.455,14.244,41.652,28.694,80.12,35.956,48.432,9.147,90.181,3.693,93.062-12.152,1.3-7.163-5.653-15.593-19.584-23.737l.353-.647c14.22,8.313,21.3,17.021,19.936,24.523C438.909,172.214,419.016,178.385,391.258,178.385Z" transform="translate(-263.656 -111.563)" fill="#1a1a1a"/></g><g transform="translate(43.439)"><path d="M402.523,206.465c-7.3,0-16.622-6.132-26.816-17.754l.567-.464c12.029,13.715,22.733,19.68,30.134,16.8,2.867-1.117,5.13-3.547,6.722-7.225,6.672-15.4.915-49.488-14.325-84.824-19.345-44.858-47.422-76.551-62.567-70.642-7.354,2.865-10.643,14.692-9.023,32.448l-.741.063C324.8,56.5,328.169,44.722,335.96,41.686c15.527-6.05,44.03,25.812,63.532,71.031,15.311,35.5,21.067,69.814,14.324,85.379-1.672,3.86-4.072,6.421-7.129,7.613A11.383,11.383,0,0,1,402.523,206.465Z" transform="translate(-326.055 -40.949)" fill="#1a1a1a"/></g></g><g transform="translate(0 3.292)"><g transform="translate(0.244 62.319)"><circle cx="0.812" cy="0.812" r="0.812" transform="translate(0.346 0.346)" fill="#1a1a1a"/><path d="M264.191,134.427a1.158,1.158,0,1,1,1.158-1.157A1.159,1.159,0,0,1,264.191,134.427Zm0-1.622a.465.465,0,1,0,.466.465A.466.466,0,0,0,264.191,132.8Z" transform="translate(-263.033 -132.112)" fill="#1a1a1a"/></g><g transform="translate(68.816)"><path d="M360.348,46.635a.811.811,0,1,1-.811-.812A.811.811,0,0,1,360.348,46.635Z" transform="translate(-358.379 -45.477)" fill="#1a1a1a"/><path d="M359.419,47.675a1.158,1.158,0,1,1,1.158-1.157A1.159,1.159,0,0,1,359.419,47.675Zm0-1.623a.465.465,0,1,0,.465.466A.466.466,0,0,0,359.419,46.052Z" transform="translate(-358.261 -45.359)" fill="#1a1a1a"/></g><g transform="translate(145.745 36.758)"><path d="M468.441,97.806a.812.812,0,1,1-.812-.812A.812.812,0,0,1,468.441,97.806Z" transform="translate(-466.471 -96.648)" fill="#1a1a1a"/><path d="M467.511,98.845a1.158,1.158,0,1,1,1.159-1.157A1.159,1.159,0,0,1,467.511,98.845Zm0-1.622a.465.465,0,1,0,.466.465A.466.466,0,0,0,467.511,97.223Z" transform="translate(-466.353 -96.53)" fill="#1a1a1a"/></g><g transform="translate(97.945 148.801)"><circle cx="0.812" cy="0.812" r="0.812" transform="translate(0.346 0.346)" fill="#1a1a1a"/><path d="M399.866,254.818a1.158,1.158,0,1,1,1.158-1.157A1.159,1.159,0,0,1,399.866,254.818Zm0-1.623a.465.465,0,1,0,.465.466A.466.466,0,0,0,399.866,253.2Z" transform="translate(-398.708 -252.503)" fill="#1a1a1a"/></g><g transform="translate(22.978 48.13)"><circle cx="0.812" cy="0.812" r="0.812" transform="translate(0.347 0.346)" fill="#1a1a1a"/><path d="M294.644,114.675a1.158,1.158,0,1,1,1.158-1.157A1.159,1.159,0,0,1,294.644,114.675Zm0-1.622a.465.465,0,1,0,.465.465A.466.466,0,0,0,294.644,113.053Z" transform="translate(-293.485 -112.36)" fill="#1a1a1a"/></g><g transform="translate(171.684 82.099)"><path d="M503.185,160.923a.812.812,0,1,1-.811-.812A.811.811,0,0,1,503.185,160.923Z" transform="translate(-501.216 -159.765)" fill="#1a1a1a"/><path d="M502.256,161.963a1.158,1.158,0,1,1,1.158-1.157A1.159,1.159,0,0,1,502.256,161.963Zm0-1.623a.465.465,0,1,0,.466.466A.466.466,0,0,0,502.256,160.34Z" transform="translate(-501.098 -159.648)" fill="#1a1a1a"/></g><g transform="translate(78.168 104.246)"><path d="M375.576,192.931a1.908,1.908,0,1,1-1.908-1.908A1.908,1.908,0,0,1,375.576,192.931Z" transform="translate(-371.414 -190.677)" fill="#1a1a1a"/><path d="M373.551,195.068a2.254,2.254,0,1,1,2.254-2.255A2.257,2.257,0,0,1,373.551,195.068Zm0-3.816a1.561,1.561,0,1,0,1.561,1.561A1.563,1.563,0,0,0,373.551,191.253Z" transform="translate(-371.296 -190.56)" fill="#1a1a1a"/></g><g transform="translate(26.523 133.73)"><path d="M302.513,234.686a1.908,1.908,0,1,1-1.908-1.908A1.908,1.908,0,0,1,302.513,234.686Z" transform="translate(-298.351 -232.432)" fill="#1a1a1a"/><path d="M300.488,236.823a2.254,2.254,0,1,1,2.254-2.255A2.257,2.257,0,0,1,300.488,236.823Zm0-3.816a1.562,1.562,0,1,0,1.562,1.562A1.564,1.564,0,0,0,300.488,233.007Z" transform="translate(-298.233 -232.315)" fill="#1a1a1a"/></g><g transform="translate(145.674 30.024)"><path d="M470.538,89.55a1.908,1.908,0,1,1-1.908-1.908A1.908,1.908,0,0,1,470.538,89.55Z" transform="translate(-466.376 -87.296)" fill="#1a1a1a"/><path d="M468.513,91.686a2.254,2.254,0,1,1,2.255-2.255A2.257,2.257,0,0,1,468.513,91.686Zm0-3.816a1.561,1.561,0,1,0,1.562,1.561A1.563,1.563,0,0,0,468.513,87.871Z" transform="translate(-466.258 -87.178)" fill="#1a1a1a"/></g><g transform="translate(107.87 53.268)"><path d="M416.836,121.925a1.908,1.908,0,1,1-1.908-1.908A1.908,1.908,0,0,1,416.836,121.925Z" transform="translate(-412.674 -119.671)" fill="#1a1a1a"/><path d="M414.811,124.062a2.254,2.254,0,1,1,2.255-2.255A2.257,2.257,0,0,1,414.811,124.062Zm0-3.816a1.561,1.561,0,1,0,1.562,1.561A1.563,1.563,0,0,0,414.811,120.247Z" transform="translate(-412.557 -119.554)" fill="#1a1a1a"/></g><g transform="translate(72.175 1.997)"><path d="M367.25,50.405a1.908,1.908,0,1,1-1.907-1.907A1.908,1.908,0,0,1,367.25,50.405Z" transform="translate(-363.088 -48.152)" fill="#1a1a1a"/><path d="M365.225,52.542a2.254,2.254,0,1,1,2.254-2.255A2.257,2.257,0,0,1,365.225,52.542Zm0-3.816a1.561,1.561,0,1,0,1.561,1.561A1.563,1.563,0,0,0,365.225,48.727Z" transform="translate(-362.97 -48.034)" fill="#1a1a1a"/></g><g transform="translate(130.739 133.079)"><path d="M448.606,233.816a1.908,1.908,0,1,1-1.908-1.908A1.909,1.909,0,0,1,448.606,233.816Z" transform="translate(-444.444 -231.562)" fill="#1a1a1a"/><path d="M446.581,235.952a2.254,2.254,0,1,1,2.254-2.255A2.257,2.257,0,0,1,446.581,235.952Zm0-3.816a1.561,1.561,0,1,0,1.562,1.561A1.563,1.563,0,0,0,446.581,232.137Z" transform="translate(-444.326 -231.444)" fill="#1a1a1a"/></g><g transform="translate(159.39 105.875)"><circle cx="1.526" cy="1.526" r="1.526" transform="translate(0.346 0.346)" fill="#1a1a1a"/><path d="M486.5,196.546a1.873,1.873,0,1,1,1.873-1.873A1.875,1.875,0,0,1,486.5,196.546Zm0-3.053a1.18,1.18,0,1,0,1.18,1.18A1.181,1.181,0,0,0,486.5,193.493Z" transform="translate(-484.63 -192.8)" fill="#1a1a1a"/></g><g transform="translate(105.882 108.637)"><path d="M413.288,198.637a1.527,1.527,0,1,1-1.527-1.527A1.526,1.526,0,0,1,413.288,198.637Z" transform="translate(-409.889 -196.764)" fill="#1a1a1a"/><path d="M411.644,200.392a1.873,1.873,0,1,1,1.873-1.873A1.875,1.875,0,0,1,411.644,200.392Zm0-3.053a1.18,1.18,0,1,0,1.18,1.18A1.181,1.181,0,0,0,411.644,197.339Z" transform="translate(-409.772 -196.646)" fill="#1a1a1a"/></g><g transform="translate(8.853 77.875)"><path d="M278.082,155.8a1.526,1.526,0,1,1-1.527-1.526A1.526,1.526,0,0,1,278.082,155.8Z" transform="translate(-274.683 -153.926)" fill="#1a1a1a"/><path d="M276.437,157.553a1.873,1.873,0,1,1,1.873-1.873A1.875,1.875,0,0,1,276.437,157.553Zm0-3.053a1.181,1.181,0,1,0,1.18,1.18A1.181,1.181,0,0,0,276.437,154.5Z" transform="translate(-274.565 -153.808)" fill="#1a1a1a"/></g><g transform="translate(128.269 70.381)"><circle cx="1.526" cy="1.526" r="1.526" transform="translate(0.346 0.347)" fill="#1a1a1a"/><path d="M442.739,147.118a1.873,1.873,0,1,1,1.873-1.873A1.875,1.875,0,0,1,442.739,147.118Zm0-3.053a1.18,1.18,0,1,0,1.18,1.18A1.181,1.181,0,0,0,442.739,144.065Z" transform="translate(-440.867 -143.372)" fill="#1a1a1a"/></g><g transform="translate(0 67.328)"><path d="M266.223,141.111a1.526,1.526,0,1,1-1.527-1.527A1.527,1.527,0,0,1,266.223,141.111Z" transform="translate(-262.824 -139.238)" fill="#1a1a1a"/><path d="M264.578,142.866a1.873,1.873,0,1,1,1.873-1.873A1.875,1.875,0,0,1,264.578,142.866Zm0-3.053a1.18,1.18,0,1,0,1.18,1.18A1.181,1.181,0,0,0,264.578,139.813Z" transform="translate(-262.706 -139.12)" fill="#1a1a1a"/></g><g transform="translate(69.284 101.988)"><path d="M363.006,192.536a2.445,2.445,0,1,1,1.05-3.294A2.444,2.444,0,0,1,363.006,192.536Z" transform="translate(-359.094 -187.573)" fill="#1a1a1a"/><path d="M359.835,192.261a2.791,2.791,0,1,1,3.212.465h0A2.8,2.8,0,0,1,359.835,192.261Zm3.384-3.529a2.1,2.1,0,1,0-.489,3.379h0a2.1,2.1,0,0,0,.489-3.379Z" transform="translate(-358.977 -187.455)" fill="#1a1a1a"/></g><g transform="translate(103.161 43.835)"><path d="M411.4,109.179a2.444,2.444,0,1,1-2.6-2.276A2.444,2.444,0,0,1,411.4,109.179Z" transform="translate(-406.165 -106.551)" fill="#1a1a1a"/><path d="M409.917,111.8a2.791,2.791,0,1,1,1.707-2.762h0A2.8,2.8,0,0,1,409.917,111.8Zm-1.889-4.51a2.1,2.1,0,1,0,2.9,1.795h0a2.1,2.1,0,0,0-2.9-1.795Z" transform="translate(-406.048 -106.434)" fill="#1a1a1a"/></g><g transform="translate(144.112 10.396)"><path d="M469.485,61.788a2.444,2.444,0,1,1-2.816-2A2.445,2.445,0,0,1,469.485,61.788Z" transform="translate(-464.283 -59.402)" fill="#1a1a1a"/><path d="M468.287,64.53a2.791,2.791,0,1,1,1.422-2.918h0A2.8,2.8,0,0,1,468.287,64.53Zm-2.329-4.3a2.1,2.1,0,1,0,3.068,1.5h0a2.1,2.1,0,0,0-3.068-1.5Z" transform="translate(-464.166 -59.285)" fill="#1a1a1a"/></g><g transform="translate(27.138 124.595)"><path d="M304.329,223.61a2.444,2.444,0,1,1-1.742-2.985A2.445,2.445,0,0,1,304.329,223.61Z" transform="translate(-299.174 -220.197)" fill="#1a1a1a"/><path d="M302.051,225.655a2.791,2.791,0,1,1,2.5-2.075h0A2.8,2.8,0,0,1,302.051,225.655Zm-.355-4.877a2.1,2.1,0,1,0,2.182,2.626h0a2.1,2.1,0,0,0-2.182-2.626Z" transform="translate(-299.056 -220.079)" fill="#1a1a1a"/></g></g></g></g></g></svg>