<svg xmlns="http://www.w3.org/2000/svg" width="200" height="230" viewBox="0 0 200 230"><g transform="translate(-461 -2730)"><rect width="200" height="230" transform="translate(461 2730)" fill="#fff"/><g transform="translate(476 2736.206)"><g transform="translate(0 22.221)"><path d="M-1813.7,1443l-84.642,48.979v97.958l84.642,48.979,84.642-48.979v-97.958Z" transform="translate(1898.345 -1443)" fill="none" stroke="#1a1a1a" stroke-miterlimit="10" stroke-width="1"/><line x2="114.076" y2="37.211" transform="translate(0.008 141.435)" stroke-width="1" stroke="#1a1a1a" stroke-linecap="round" stroke-linejoin="round" fill="none"/><line y1="37.321" x2="113.66" transform="translate(55.558 141.324)" stroke-width="1" stroke="#1a1a1a" stroke-linecap="round" stroke-linejoin="round" fill="none"/></g><path d="M-1719.472,1489.662c-5.581-18.506-15.852-35-26.963-50.426-5.789-8.039-11.91-15.987-15.7-25.277s-6.014-19.9-1.759-28.958c-8.215,7.74-16.73,15.935-20.562,26.873-4.055,11.574-1.916,26.534,5.373,36.15a36.6,36.6,0,0,0-30.163-14.141c9.689,3.7,17.067,13.5,18.346,24.363s-2.356,25.917-10.888,32.045c4.393-16.155-3.357-35.067-17.474-42.64,3.447,4.113,2.936,10.646.5,15.507s-6.413,8.6-9.81,12.761c-13.53,16.573-17.61,41.247-10.208,61.736,6.446,17.846,28.155,34.333,45.429,39.415a67.081,67.081,0,0,0,35.363-.453c17.719-6.2,29.806-19.97,35-31.314A78.638,78.638,0,0,0-1719.472,1489.662Z" transform="translate(1863.853 -1385)" fill="#fff" stroke="#1a1a1a" stroke-linecap="round" stroke-linejoin="round" stroke-width="1"/><g transform="translate(38.72 104.978)"><path d="M-1684.025,1669.789c0-1.345,0-18.836,0-18.836" transform="translate(1729.103 -1650.953)" fill="none" stroke="#1a1a1a" stroke-linecap="round" stroke-linejoin="round" stroke-width="1"/><line y1="8.746" x2="3.364" transform="translate(61.219 7.736)" stroke-width="1" stroke="#1a1a1a" stroke-linecap="round" stroke-linejoin="round" fill="none"/><line y1="9.418" x2="10.427" transform="translate(75.346 14.8)" stroke-width="1" stroke="#1a1a1a" stroke-linecap="round" stroke-linejoin="round" fill="none"/><line x2="8.914" transform="translate(80.56 35.655)" stroke-width="1" stroke="#1a1a1a" stroke-linecap="round" stroke-linejoin="round" fill="none"/><line x2="14.464" y2="2.691" transform="translate(77.364 49.446)" stroke-width="1" stroke="#1a1a1a" stroke-linecap="round" stroke-linejoin="round" fill="none"/><line x2="7.064" y2="8.073" transform="translate(70.3 59.873)" stroke-width="1" stroke="#1a1a1a" stroke-linecap="round" stroke-linejoin="round" fill="none"/><line x2="4.709" y2="8.746" transform="translate(24.891 7.736)" stroke-width="1" stroke="#1a1a1a" stroke-linecap="round" stroke-linejoin="round" fill="none"/><line x1="11.773" y1="10.932" transform="translate(4.036 13.286)" stroke-width="1" stroke="#1a1a1a" stroke-linecap="round" stroke-linejoin="round" fill="none"/><line x2="9.755" y2="1.682" transform="translate(2.355 33.973)" stroke-width="1" stroke="#1a1a1a" stroke-linecap="round" stroke-linejoin="round" fill="none"/><line y1="4.036" x2="15.809" transform="translate(0 50.791)" stroke-width="1" stroke="#1a1a1a" stroke-linecap="round" stroke-linejoin="round" fill="none"/><line y1="6.055" x2="7.4" transform="translate(14.127 63.909)" stroke-width="1" stroke="#1a1a1a" stroke-linecap="round" stroke-linejoin="round" fill="none"/></g><path d="M-1702.59,1719.939a12.356,12.356,0,0,0-17.1.8l-5.393,5.678,0,0-5.384-5.676a12.363,12.363,0,0,0-17.108-.8c-13.492,11.792,7.188,29.4,22.492,38.844a0,0,0,0,0,0,0c15.271-9.418,35.986-27.059,22.495-38.847Z" transform="translate(1809.724 -1586.51)" fill="#1a1a1a" stroke="#1a1a1a" stroke-linecap="round" stroke-linejoin="round" stroke-width="1"/></g></g></svg>