<svg xmlns="http://www.w3.org/2000/svg" width="250.456" height="49.127" viewBox="0 0 250.456 49.127"><g transform="translate(-617.334 -1663.573)"><g transform="translate(617.334 1663.573)"><path d="M627.548,1891a.839.839,0,0,1-.113-.7c-1,.036-1.792.25-2.174.271-.445.023-.437.156.383.35a17.55,17.55,0,0,0,2.564.783c.083.006.164.014.243.024A3.86,3.86,0,0,1,627.548,1891Z" transform="translate(-624.967 -1868.248)" fill="#ee5f36"/><path d="M720.86,1709.871a24.724,24.724,0,0,0-1.259-3.1c-.361-.892-3.247.136-5.377.919-1.652.608-2.26.571-4.925,1.345a49.432,49.432,0,0,0-4.968-1.8c-2.078-.617-3.354-2.524-7.125-4.841a37.968,37.968,0,0,1,3.815-5.22c1.952-2.445,3.378-2.5,5-4.958s2.827-2.411,4.541-7.273,1.2-2.487,1.129-6.321.39-8.3-1.773-6.084a67.963,67.963,0,0,1-7.153,6.814c-2.432,1.795-3.709,3.215-7.4,5.333-4.185,2.4-3.07,2.458-5.914,5.089l-1.091,1.009a42.78,42.78,0,0,1-1.581-5c-1.805-6.419-2.139-5.719-2.771-9.056-1.359-7.17-.121-1.226-2.489-8.316-.126-.376-.108-.624-.416-.289-.787.853-.815.716-1.087,1.041-1.988,2.384-.48.505-2.469,2.774-2.737,3.121-2.463,1.417-5.229,5.516-1.05,1.557-1.385,2.073.12,5.343s1.326,5.744,3.558,10.517a30.623,30.623,0,0,1,1.632,4.039,7.826,7.826,0,0,1-4.653-.76c-5.781-2.547-10.145-4.741-13.876-6.18a7.8,7.8,0,0,1-2.411-1.315,6.333,6.333,0,0,0-3.966-.986,5.09,5.09,0,0,0-2.5.721,2.216,2.216,0,0,0-.587,1.184.84.84,0,0,0,.113.7,3.855,3.855,0,0,0,.9.723,3.157,3.157,0,0,0,.439.2.984.984,0,0,0,.153.063,15.711,15.711,0,0,0,3.13.813c1.386.2,1.475.089,3.378.309s2.287.425,5.146,2.625c3.942,3.033,3.787,3.977,7.526,7,3.917,3.162,4.769,4.721,11.2,6.818a29.434,29.434,0,0,0,9.475,1.859c4.009.419,12.657,1.7,18.715,2.637.866.329,2.114.758,3.952,1.348,3.8,1.219,1.38.338,3.3,1a9.366,9.366,0,0,1,2.212.973,4.732,4.732,0,0,0,1.073-2.512,20.852,20.852,0,0,0,.627-2.308A4.034,4.034,0,0,0,720.86,1709.871Zm-9.638-32.605c.019.063.042.118-.008.161a.577.577,0,0,1-.129.053c-.2.089-.38.207-.572.3-.8.407-1.638.748-2.4,1.226a5.61,5.61,0,0,0-1.095.879,5.606,5.606,0,0,0-.567-.605,14.359,14.359,0,0,1,2.258-1.66,12.149,12.149,0,0,0,1.962-1.542c.148.313.312.618.452.934A2.181,2.181,0,0,1,711.222,1677.266Zm-2.712-1.759a12.186,12.186,0,0,0,1.841-1.695c.171.3.357.588.521.89.04.075.08.151.115.229.025.056.068.119.017.175-.026.028-.085.041-.119.06-.19.1-.367.238-.552.351-.766.469-1.574.875-2.3,1.411a5.6,5.6,0,0,0-1.027.965,5.431,5.431,0,0,0-.613-.558A14.326,14.326,0,0,1,708.51,1675.507Zm.491,4.274a12.09,12.09,0,0,0,2.272-.968,11.97,11.97,0,0,1,.222,1.286c.005.071.017.12-.05.154a.636.636,0,0,1-.149.018c-.137.024-.273.067-.409.1-.292.065-.587.121-.881.175a9.388,9.388,0,0,0-3.255.987,5.559,5.559,0,0,0-.388-.732A14.537,14.537,0,0,1,709,1679.781Zm-.443,2.247a12.217,12.217,0,0,0,2.407-.159c-.064.4-.1.8-.195,1.191-.008.034-.018.068-.027.1-.026.093-.039.122-.14.114s-.219-.035-.327-.045c-.329-.034-.657-.083-.984-.135a9.749,9.749,0,0,0-3.5-.17,5.58,5.58,0,0,0-.123-.82A15.417,15.417,0,0,1,708.559,1682.028Zm-.665,1.841a12.119,12.119,0,0,0,2.434,0c-.09.393-.155.794-.274,1.18a.836.836,0,0,1-.046.138c-.04.076-.055.075-.138.059-.14-.026-.281-.058-.422-.084-.3-.054-.594-.119-.89-.186a9.7,9.7,0,0,0-3.458-.395,5.519,5.519,0,0,0-.069-.826A15.06,15.06,0,0,1,707.895,1683.869Zm-3.608,1.034a15.337,15.337,0,0,1,2.8.687,12.184,12.184,0,0,0,2.366.482c-.171.378-.316.769-.521,1.13a.488.488,0,0,1-.078.13c-.074.056-.134-.01-.2-.04-.12-.058-.251-.1-.375-.147-.29-.117-.576-.245-.86-.375a9.4,9.4,0,0,0-3.235-1.044A5.558,5.558,0,0,0,704.287,1684.9Zm-1,1.439a14.909,14.909,0,0,1,2.625,1.113,12.157,12.157,0,0,0,2.286.873c-.188.281-.363.571-.557.847-.049.07-.1.139-.154.205a.5.5,0,0,1-.076.089c-.07.05-.107,0-.163-.042-.167-.125-.361-.219-.538-.33-.78-.488-1.517-1.048-2.338-1.469a.844.844,0,0,1-1.085-1.287Zm-1.321,1.865a14.93,14.93,0,0,1,2.625,1.113,12.176,12.176,0,0,0,2.286.873c-.188.281-.363.57-.557.846-.049.07-.1.139-.154.206a.508.508,0,0,1-.076.089c-.07.05-.107,0-.164-.042-.167-.125-.361-.219-.538-.33-.78-.488-1.517-1.048-2.338-1.469a.844.844,0,0,1-1.085-1.287Zm-1.545,1.563a14.908,14.908,0,0,1,2.625,1.113,12.154,12.154,0,0,0,2.286.873c-.188.28-.363.57-.557.847-.049.07-.1.139-.154.205a.5.5,0,0,1-.076.089c-.07.05-.106,0-.163-.042-.167-.125-.361-.219-.538-.33-.78-.488-1.517-1.048-2.338-1.468a.844.844,0,0,1-1.085-1.287Zm-1.59,1.424a14.545,14.545,0,0,1,2.479,1.375,12.034,12.034,0,0,0,2.2,1.118c-.219.262-.424.535-.65.79-.057.064-.115.127-.175.187-.022.022-.056.07-.085.081-.074.028-.118-.037-.164-.078-.165-.147-.358-.268-.532-.405-.7-.557-1.365-1.173-2.116-1.667a5.657,5.657,0,0,0-1.264-.632A5.5,5.5,0,0,0,698.828,1691.194Zm-1.6,1.766a14.535,14.535,0,0,1,2.5,1.328,12.084,12.084,0,0,0,2.217,1.078c-.213.265-.414.541-.634.8-.052.061-.1.12-.16.177a.549.549,0,0,1-.08.08c-.077.049-.107.008-.166-.044-.158-.139-.343-.25-.512-.378-.734-.553-1.418-1.175-2.2-1.665a5.65,5.65,0,0,0-1.268-.6A5.541,5.541,0,0,0,697.227,1692.96Zm-1.6,1.456a14.153,14.153,0,0,1,2.38,1.442,12.121,12.121,0,0,0,2.19,1.238c-.23.254-.447.518-.684.766-.059.062-.12.122-.183.18-.024.022-.075.084-.105.089-.059.009-.108-.067-.143-.1-.16-.153-.346-.282-.515-.427-.681-.585-1.317-1.226-2.048-1.751a5.626,5.626,0,0,0-1.234-.68A5.528,5.528,0,0,0,695.628,1694.416Zm-1.681,1.8a14.6,14.6,0,0,1,2.5,1.328,12.061,12.061,0,0,0,2.217,1.078c-.213.266-.414.541-.634.8-.052.061-.1.121-.16.178a.54.54,0,0,1-.08.08c-.076.049-.107.008-.166-.044-.158-.139-.343-.25-.512-.378-.734-.553-1.418-1.175-2.2-1.665a5.636,5.636,0,0,0-1.268-.6A5.533,5.533,0,0,0,693.947,1696.216Zm-1.309,1.625a14.146,14.146,0,0,1,2.38,1.442,12.1,12.1,0,0,0,2.19,1.238c-.23.253-.447.518-.684.766-.059.062-.12.123-.183.18-.024.022-.075.084-.105.088-.059.009-.108-.067-.143-.1-.16-.153-.346-.282-.515-.427-.681-.585-1.316-1.227-2.048-1.751a5.631,5.631,0,0,0-1.234-.681A5.453,5.453,0,0,0,692.637,1697.841Zm-4.709-6.653c-1.469,1.357-2.185,2.017-3.853,3.564-.121-.135-.25-.262-.382-.388a13.789,13.789,0,0,1,1.7-1.305c.3-.192.606-.362.9-.56s.574-.416.848-.641.528-.451.784-.685Zm-.342-.854c.032.073.061.147.088.224.013.036.044.091.033.129,0,0,0,0,0,0l-.018.012a.385.385,0,0,1-.056.027c-.2.081-.383.2-.574.3-.412.215-.833.41-1.251.613a12.974,12.974,0,0,0-1.209.652,5.643,5.643,0,0,0-1.067.844c-.018.018-.035.036-.052.055a5.4,5.4,0,0,0-.569-.6,13.788,13.788,0,0,1,1.689-1.316c.294-.194.6-.366.895-.565s.572-.419.844-.647.526-.455.78-.691C687.27,1689.694,687.442,1690.008,687.586,1690.334Zm-.665-1.777c.032.078.061.156.086.236a.279.279,0,0,1,.03.127s-.009.012,0,0-.01.008,0,0l-.019.011a.393.393,0,0,1-.052.023c-.2.076-.392.19-.588.285-.417.2-.842.387-1.264.578a13,13,0,0,0-1.224.618,5.652,5.652,0,0,0-1.092.817l-.052.052a5.384,5.384,0,0,0-.554-.618c.513-.454,1-.937,1.534-1.369a6.006,6.006,0,0,1,.836-.583c.322-.181.654-.344.977-.523a5.993,5.993,0,0,0,.947-.629C686.625,1687.913,686.788,1688.229,686.921,1688.558Zm-.574-2.148c.029.079.056.159.078.24a.367.367,0,0,1,.027.14l0,0-.012.007a.338.338,0,0,1-.056.023c-.045.015-.091.027-.134.046s-.094.045-.141.067q-.158.075-.318.145c-.422.185-.853.35-1.28.523a13.079,13.079,0,0,0-1.269.575,5.628,5.628,0,0,0-1.126.772l-.052.048a5.426,5.426,0,0,0-.528-.641c.527-.429,1.029-.888,1.574-1.294a6.128,6.128,0,0,1,.871-.558c.331-.169.671-.319,1-.485a5.971,5.971,0,0,0,.969-.588C686.081,1685.761,686.228,1686.079,686.347,1686.41Zm-.734-2.215c.026.08.051.161.07.243a.477.477,0,0,1,.024.131.026.026,0,0,1,0,.01h0l-.007,0a.242.242,0,0,1-.049.021c-.042.013-.085.022-.127.037s-.1.045-.155.068c-.1.045-.206.088-.31.13-.433.174-.874.327-1.311.488a13.322,13.322,0,0,0-1.288.535,5.648,5.648,0,0,0-1.156.74l-.052.046a5.333,5.333,0,0,0-.507-.656,13.863,13.863,0,0,1,1.809-1.139c.314-.165.64-.306.951-.475s.607-.357.9-.555.571-.4.85-.613C685.367,1683.536,685.5,1683.861,685.613,1684.194Zm-.631-2.157c.028.08.054.16.074.242a.343.343,0,0,1,.025.135.019.019,0,0,0,0,.005l0,0c.008-.007-.009.005-.012.006a.237.237,0,0,1-.051.021c-.041.014-.084.023-.124.039s-.106.048-.159.072q-.153.069-.307.134c-.429.18-.866.34-1.3.507a13.422,13.422,0,0,0-1.275.555,5.651,5.651,0,0,0-1.14.757l-.052.047a5.416,5.416,0,0,0-.518-.647,13.778,13.778,0,0,1,1.8-1.175c.31-.17.634-.315.941-.49s.6-.369.889-.572.557-.406.829-.619C684.726,1681.385,684.868,1681.705,684.983,1682.037Zm-7.684-8.553a13.738,13.738,0,0,1,1.753-1.236c.3-.18.62-.337.92-.522s.587-.389.868-.6.548-.43.815-.655c.136.324.29.64.416.969.03.078.058.157.082.238a.305.305,0,0,1,.03.135v0l0,0-.012.007a.4.4,0,0,1-.051.022c-.045.016-.09.029-.134.048s-.1.049-.145.073c-.1.052-.208.1-.314.15-.422.2-.852.371-1.279.554a12.976,12.976,0,0,0-1.24.593,5.657,5.657,0,0,0-1.112.8l-.052.051A5.361,5.361,0,0,0,677.3,1673.484Zm2.327.792c.311-.169.634-.313.942-.488s.6-.367.89-.569.558-.405.83-.617c.123.328.264.65.378.982.027.08.053.161.074.242a.34.34,0,0,1,.025.134.015.015,0,0,0,0,.005l0,0c.009-.007-.009,0-.012.007a.281.281,0,0,1-.051.02c-.041.013-.084.023-.124.039s-.106.048-.159.072q-.153.07-.307.134c-.429.179-.867.337-1.3.5a13.343,13.343,0,0,0-1.277.551,5.63,5.63,0,0,0-1.142.754l-.052.047a5.357,5.357,0,0,0-.516-.649A13.8,13.8,0,0,1,679.625,1674.276Zm.544,1.891c.328-.139.666-.252.992-.4s.626-.3.928-.473.6-.35.891-.536c.09.336.2.667.279,1,.02.082.038.164.051.248a.52.52,0,0,1,.015.131.043.043,0,0,1-.005.019l-.013.007-.027.009c-.044.012-.089.018-.133.028a1.277,1.277,0,0,0-.138.045q-.166.057-.333.109c-.448.139-.9.256-1.354.38a13.315,13.315,0,0,0-1.328.425,5.68,5.68,0,0,0-1.221.641l-.065.048a5.246,5.246,0,0,0-.451-.7A13.847,13.847,0,0,1,680.169,1676.167Zm-1.085,3.751a5.268,5.268,0,0,0-.443-.7,13.775,13.775,0,0,1,1.917-.969c.332-.136.673-.247,1-.388s.629-.3.933-.463.6-.344.9-.526c.086.337.191.669.269,1.009.019.081.035.161.048.244,0,.014,0,.032.008.058a.337.337,0,0,1,.006.071.062.062,0,0,1,0,.024s0,0,0,0l-.012.006-.027.008c-.042.012-.086.017-.129.026a1.149,1.149,0,0,0-.137.042q-.167.056-.336.106c-.45.135-.907.247-1.361.367a13.394,13.394,0,0,0-1.329.409,5.666,5.666,0,0,0-1.232.629Zm.662,2.294a5.3,5.3,0,0,0-.461-.688,13.93,13.93,0,0,1,1.9-1.021c.321-.141.652-.258.97-.4s.63-.315.934-.493.594-.36.885-.55c.1.336.209.666.3,1,.021.081.04.163.054.246a.482.482,0,0,1,.017.133.116.116,0,0,1,0,.012s-.008.007,0,0a.132.132,0,0,1-.051.021c-.042.011-.085.018-.127.028a1.383,1.383,0,0,0-.139.048c-.11.04-.22.077-.331.113-.447.146-.9.269-1.351.4a13.191,13.191,0,0,0-1.323.446,5.618,5.618,0,0,0-1.213.663Z" transform="translate(-647.166 -1667.974)"/></g><g transform="translate(698.466 1683.015)"><path d="M1438.893,1836.21a7.309,7.309,0,0,1-2.035-.273,7.5,7.5,0,0,1-1.6-.642l-.579.587h-.713l-.109-4.3h.721a11.216,11.216,0,0,0,.621,1.295,6.294,6.294,0,0,0,.873,1.22,4.5,4.5,0,0,0,1.145.916,2.987,2.987,0,0,0,1.481.354,2.5,2.5,0,0,0,1.75-.559,1.827,1.827,0,0,0,.609-1.407,1.529,1.529,0,0,0-.516-1.171,4.3,4.3,0,0,0-1.6-.82q-.7-.228-1.3-.422t-1.112-.4a3.677,3.677,0,0,1-1.783-1.37,3.555,3.555,0,0,1-.583-1.991,3.114,3.114,0,0,1,.3-1.34,3.56,3.56,0,0,1,.881-1.155,4.335,4.335,0,0,1,1.418-.781,5.658,5.658,0,0,1,1.88-.3,6.044,6.044,0,0,1,1.854.277,7.636,7.636,0,0,1,1.359.554l.512-.5h.73l.067,4.061h-.721q-.252-.656-.592-1.341a5.822,5.822,0,0,0-.717-1.14,3.262,3.262,0,0,0-.948-.778,2.609,2.609,0,0,0-1.258-.29,2.142,2.142,0,0,0-1.481.513,1.633,1.633,0,0,0-.575,1.269,1.508,1.508,0,0,0,.5,1.168,4.328,4.328,0,0,0,1.557.8q.621.211,1.267.42t1.15.4a4.137,4.137,0,0,1,1.85,1.3,3.486,3.486,0,0,1,.273,3.55,3.468,3.468,0,0,1-.973,1.2,4.944,4.944,0,0,1-1.552.815A6.68,6.68,0,0,1,1438.893,1836.21Z" transform="translate(-1433.859 -1822.894)"/><path d="M1520.178,1844.6a10.771,10.771,0,0,1-1.15.424,5.125,5.125,0,0,1-1.493.189,2.637,2.637,0,0,1-1.943-.637,2.47,2.47,0,0,1-.633-1.819v-5.146h-1.51v-.914h1.544v-2.543h2.719v2.543h2.358v.914h-2.341v4.592a2.619,2.619,0,0,0,.274,1.391,1.091,1.091,0,0,0,.981.411q.227,0,.632-.033a3.791,3.791,0,0,0,.564-.076Z" transform="translate(-1502.834 -1832)"/><path d="M1579.048,1859.536a6.328,6.328,0,0,1-.871.294,4.1,4.1,0,0,1-1.063.134,2.918,2.918,0,0,1-1.516-.306,1.534,1.534,0,0,1-.661-.877h-.05a5.5,5.5,0,0,1-.551.487,3.128,3.128,0,0,1-.567.344,4.248,4.248,0,0,1-.76.277,4.384,4.384,0,0,1-1.021.092,2.511,2.511,0,0,1-1.664-.575,1.888,1.888,0,0,1-.689-1.525,2.524,2.524,0,0,1,.151-.928,2.11,2.11,0,0,1,.428-.677,2.224,2.224,0,0,1,.584-.445,6.457,6.457,0,0,1,.727-.328q.757-.277,1.815-.575a10.224,10.224,0,0,0,1.546-.534v-.805q0-.21-.033-.554a1.793,1.793,0,0,0-.143-.579,1.107,1.107,0,0,0-.37-.453,1.1,1.1,0,0,0-.663-.184,1.584,1.584,0,0,0-.617.1,2.053,2.053,0,0,0-.4.214,3.235,3.235,0,0,0,.143.512,2.037,2.037,0,0,1,.118.663,1.119,1.119,0,0,1-.076.357.8.8,0,0,1-.219.34,1.463,1.463,0,0,1-.433.26,2.18,2.18,0,0,1-.736.092,1.509,1.509,0,0,1-1.069-.34,1.2,1.2,0,0,1,.012-1.729,3.047,3.047,0,0,1,.91-.616,5.2,5.2,0,0,1,1.217-.391,6.51,6.51,0,0,1,1.275-.138,10.689,10.689,0,0,1,1.494.1,3.532,3.532,0,0,1,1.225.4,2.13,2.13,0,0,1,.827.852,3.017,3.017,0,0,1,.306,1.456q0,.948-.038,2.249t-.038,1.712a1.306,1.306,0,0,0,.113.6.721.721,0,0,0,.348.327,1.243,1.243,0,0,0,.449.08c.2.008.39.012.558.012Zm-4.162-4.372q-.472.161-.935.366a3.747,3.747,0,0,0-.758.433,1.633,1.633,0,0,0-.489.6,1.96,1.96,0,0,0-.177.862,1.292,1.292,0,0,0,.3.951,1.01,1.01,0,0,0,.737.294,1.4,1.4,0,0,0,.762-.189,2.192,2.192,0,0,0,.526-.467Z" transform="translate(-1551.526 -1846.723)"/><path d="M1652.838,1830.976h-3.955q-.729-1.281-1.333-2.172t-1.14-1.653l-.494.418v1.829a1.2,1.2,0,0,0,.088.5.56.56,0,0,0,.34.285,2.212,2.212,0,0,0,.353.118,2.537,2.537,0,0,0,.4.067v.613h-5.211v-.613q.211-.017.422-.046a2.321,2.321,0,0,0,.372-.08.6.6,0,0,0,.368-.285,1.119,1.119,0,0,0,.1-.5v-9.356a1.525,1.525,0,0,0-.122-.575.934.934,0,0,0-.357-.449,1.5,1.5,0,0,0-.478-.168,4.187,4.187,0,0,0-.579-.084v-.612l4.179-.218.126.134v8.659q.62-.554,1.4-1.283t1.245-1.208a1.1,1.1,0,0,0,.306-.432,1.418,1.418,0,0,0,.029-.18q0-.151-.265-.252a3.958,3.958,0,0,0-.8-.176v-.6h4.263v.579a8.739,8.739,0,0,0-1.278.44,7.588,7.588,0,0,0-.959.55q-.344.226-.666.475t-.74.619q.821,1.191,1.516,2.206t1.458,2.147a1.272,1.272,0,0,0,.645.529,3.176,3.176,0,0,0,.771.168Z" transform="translate(-1613.904 -1817.987)"/><path d="M1736.215,1857.707a5.129,5.129,0,0,1-.709.9,4.311,4.311,0,0,1-.944.726,5.169,5.169,0,0,1-1.137.482,4.847,4.847,0,0,1-1.322.164,5.883,5.883,0,0,1-2.144-.352,4.2,4.2,0,0,1-1.49-.948,3.8,3.8,0,0,1-.877-1.406,5.177,5.177,0,0,1-.29-1.758,4.409,4.409,0,0,1,1.208-3.037,4.285,4.285,0,0,1,1.439-.965,4.925,4.925,0,0,1,1.943-.369,5.529,5.529,0,0,1,1.93.285,3.414,3.414,0,0,1,1.25.789,2.859,2.859,0,0,1,.7,1.128,4.261,4.261,0,0,1,.218,1.364v.545h-5.672a4.369,4.369,0,0,0,.662,2.618,2.764,2.764,0,0,0,3.525.466,4.053,4.053,0,0,0,1.074-1.095Zm-3.205-3.189q0-.5-.05-1.032a3.437,3.437,0,0,0-.176-.864,1.334,1.334,0,0,0-.39-.6.959.959,0,0,0-.625-.2,1.163,1.163,0,0,0-1.032.655,4.442,4.442,0,0,0-.419,2.072Z" transform="translate(-1688.168 -1846.723)"/></g><g transform="translate(751.81 1682.868)"><path d="M1442.4,1976.876h-.654a7.317,7.317,0,0,0-.833-1.636q-.573-.872-1.059-.94-.268-.033-.661-.059t-.678-.025h-.393v9.339a1.23,1.23,0,0,0,.109.533.773.773,0,0,0,.428.365,3.728,3.728,0,0,0,.6.155q.407.08.692.113v.655h-6.637v-.655l.684-.071a2.432,2.432,0,0,0,.6-.114.782.782,0,0,0,.436-.361,1.226,1.226,0,0,0,.109-.537v-9.423h-.393q-.285,0-.678.025t-.661.059q-.486.067-1.059.94a7.311,7.311,0,0,0-.833,1.636h-.655v-3.406H1442.4Z" transform="translate(-1430.867 -1972.388)" fill="#929292"/><path d="M1531.573,2005.073a5.1,5.1,0,0,1-.709.9,4.315,4.315,0,0,1-.944.726,5.184,5.184,0,0,1-1.137.482,4.828,4.828,0,0,1-1.322.164,5.876,5.876,0,0,1-2.144-.353,4.2,4.2,0,0,1-1.49-.948,3.793,3.793,0,0,1-.877-1.406,5.186,5.186,0,0,1-.29-1.758,4.411,4.411,0,0,1,1.208-3.037,4.285,4.285,0,0,1,1.439-.965,4.924,4.924,0,0,1,1.942-.369,5.537,5.537,0,0,1,1.93.285,3.418,3.418,0,0,1,1.25.789,2.866,2.866,0,0,1,.7,1.129,4.261,4.261,0,0,1,.218,1.364v.545h-5.672a4.367,4.367,0,0,0,.663,2.618,2.763,2.763,0,0,0,3.524.466,4.046,4.046,0,0,0,1.074-1.095Zm-3.206-3.188q0-.5-.05-1.032a3.433,3.433,0,0,0-.176-.864,1.331,1.331,0,0,0-.39-.6.959.959,0,0,0-.625-.2,1.162,1.162,0,0,0-1.032.655,4.447,4.447,0,0,0-.42,2.073Z" transform="translate(-1510.42 -1994.089)" fill="#929292"/><path d="M1601.021,2007.347a5.767,5.767,0,0,1-2.06-.34,4.053,4.053,0,0,1-1.473-.927,3.793,3.793,0,0,1-.864-1.41,5.313,5.313,0,0,1-.285-1.77,4.069,4.069,0,0,1,.348-1.661,4.366,4.366,0,0,1,2.467-2.362,5.358,5.358,0,0,1,2.01-.365,4.443,4.443,0,0,1,2.441.583,1.793,1.793,0,0,1,.9,1.573,1.438,1.438,0,0,1-.319.974,1.393,1.393,0,0,1-1.1.369,1.769,1.769,0,0,1-1.053-.3.928.928,0,0,1-.423-.789,2.558,2.558,0,0,1,.134-.814,3.451,3.451,0,0,0,.16-.613.642.642,0,0,0-.235-.231.951.951,0,0,0-.445-.08,1.368,1.368,0,0,0-.688.176,1.7,1.7,0,0,0-.579.621,3.631,3.631,0,0,0-.415,1.125,8,8,0,0,0-.155,1.695,3.856,3.856,0,0,0,.7,2.408,2.061,2.061,0,0,0,1.674.914,2.4,2.4,0,0,0,1.481-.415,3.736,3.736,0,0,0,.977-1.179l.63.436a4.772,4.772,0,0,1-.621.935,3.952,3.952,0,0,1-.864.751,4.488,4.488,0,0,1-1.074.52A4.119,4.119,0,0,1,1601.021,2007.347Z" transform="translate(-1574.271 -1994.089)" fill="#929292"/><path d="M1671.884,1978.343h-5.043v-.613l.395-.042a.965.965,0,0,0,.336-.084.512.512,0,0,0,.247-.269,1.448,1.448,0,0,0,.071-.52v-3.927a2.136,2.136,0,0,0-.323-1.292,1.084,1.084,0,0,0-.919-.428,1.891,1.891,0,0,0-.625.1,2.33,2.33,0,0,0-.566.293,1.931,1.931,0,0,0-.39.344q-.147.176-.248.31v4.506a1.3,1.3,0,0,0,.075.491.62.62,0,0,0,.286.3,1.381,1.381,0,0,0,.331.134,2.7,2.7,0,0,0,.4.084v.613h-5.119v-.613q.22-.017.426-.042a1.65,1.65,0,0,0,.368-.084.639.639,0,0,0,.367-.289,1.1,1.1,0,0,0,.1-.5v-9.356a1.488,1.488,0,0,0-.126-.571.975.975,0,0,0-.353-.453,1.415,1.415,0,0,0-.486-.172,4.548,4.548,0,0,0-.571-.08v-.613l4.178-.218.126.134v5.773h.034l.574-.516a4.713,4.713,0,0,1,.624-.466,3.022,3.022,0,0,1,.808-.344,3.9,3.9,0,0,1,1.077-.143,2.567,2.567,0,0,1,2.04.781,3.009,3.009,0,0,1,.683,2.056v4.112a1.118,1.118,0,0,0,.092.5.652.652,0,0,0,.344.294,2.315,2.315,0,0,0,.336.117,3.314,3.314,0,0,0,.453.084Z" transform="translate(-1629.887 -1965.354)" fill="#929292"/><path d="M1761.868,2007.186h-5.043v-.612l.386-.042a1.053,1.053,0,0,0,.344-.084.534.534,0,0,0,.252-.268,1.383,1.383,0,0,0,.076-.52v-3.927a2.178,2.178,0,0,0-.316-1.288,1.079,1.079,0,0,0-.93-.432,1.89,1.89,0,0,0-.627.1,2.33,2.33,0,0,0-.568.293,1.942,1.942,0,0,0-.391.344c-.1.118-.181.221-.248.311v4.506a1.256,1.256,0,0,0,.084.491.586.586,0,0,0,.277.3,1.626,1.626,0,0,0,.336.134,2.606,2.606,0,0,0,.394.084v.612h-5.1v-.612c.14-.011.281-.027.423-.046a2.033,2.033,0,0,0,.365-.08.614.614,0,0,0,.369-.285,1.087,1.087,0,0,0,.1-.5v-4.884a1.077,1.077,0,0,0-.134-.512,1.206,1.206,0,0,0-.352-.411,1.375,1.375,0,0,0-.382-.168,2.706,2.706,0,0,0-.508-.092v-.613l4-.218.126.126v1.216h.033q.235-.209.571-.5a5.571,5.571,0,0,1,.621-.479,3.022,3.022,0,0,1,.814-.344,3.928,3.928,0,0,1,1.074-.143,2.592,2.592,0,0,1,2.052.776,3,3,0,0,1,.684,2.06v4.112a1.115,1.115,0,0,0,.092.5.651.651,0,0,0,.344.294,2.886,2.886,0,0,0,.331.117,2.411,2.411,0,0,0,.449.084Z" transform="translate(-1708.024 -1994.197)" fill="#929292"/><path d="M1849.733,1999.744a3.846,3.846,0,0,1,.948,1.385,4.592,4.592,0,0,1,.327,1.746,4.792,4.792,0,0,1-.323,1.758,3.85,3.85,0,0,1-.944,1.414,4.509,4.509,0,0,1-1.582.965,6.1,6.1,0,0,1-2.1.336,5.8,5.8,0,0,1-1.884-.293,4.418,4.418,0,0,1-1.522-.881,3.991,3.991,0,0,1-1.008-1.389,4.491,4.491,0,0,1-.369-1.85,4.678,4.678,0,0,1,.323-1.792,4.029,4.029,0,0,1,.969-1.4,4.276,4.276,0,0,1,1.531-.91,6.682,6.682,0,0,1,4.1,0A4.48,4.48,0,0,1,1849.733,1999.744Zm-2.148,5.815a4.9,4.9,0,0,0,.273-1.141,12.168,12.168,0,0,0,.088-1.561,12.371,12.371,0,0,0-.084-1.343,4.929,4.929,0,0,0-.252-1.191,1.992,1.992,0,0,0-.558-.831,1.524,1.524,0,0,0-1.854.025,2.127,2.127,0,0,0-.55.847,4.64,4.64,0,0,0-.243,1.121,12.754,12.754,0,0,0-.067,1.338q0,.914.059,1.514a4.737,4.737,0,0,0,.285,1.2,1.915,1.915,0,0,0,.554.822,1.5,1.5,0,0,0,1.779.021A1.868,1.868,0,0,0,1847.585,2005.559Z" transform="translate(-1786.541 -1994.089)" fill="#929292"/><path d="M1924.341,1978.343h-5.286v-.613c.146-.011.289-.025.427-.042a1.648,1.648,0,0,0,.367-.084.639.639,0,0,0,.367-.289,1.1,1.1,0,0,0,.1-.5v-9.3a1.355,1.355,0,0,0-.13-.592.989.989,0,0,0-.348-.415,2.031,2.031,0,0,0-.507-.21,2.785,2.785,0,0,0-.6-.117v-.613l4.229-.218.126.134v11.219a1.01,1.01,0,0,0,.11.5.731.731,0,0,0,.355.3,3.235,3.235,0,0,0,.354.134,2.169,2.169,0,0,0,.44.084Z" transform="translate(-1853.663 -1965.354)" fill="#929292"/><path d="M1976.008,1999.744a3.846,3.846,0,0,1,.948,1.385,4.6,4.6,0,0,1,.327,1.746,4.787,4.787,0,0,1-.323,1.758,3.846,3.846,0,0,1-.944,1.414,4.513,4.513,0,0,1-1.581.965,6.1,6.1,0,0,1-2.1.336,5.8,5.8,0,0,1-1.884-.293,4.428,4.428,0,0,1-1.523-.881,3.99,3.99,0,0,1-1.007-1.389,4.487,4.487,0,0,1-.369-1.85,4.669,4.669,0,0,1,.323-1.792,4.024,4.024,0,0,1,.969-1.4,4.276,4.276,0,0,1,1.531-.91,6.682,6.682,0,0,1,4.1,0A4.48,4.48,0,0,1,1976.008,1999.744Zm-2.148,5.815a4.881,4.881,0,0,0,.272-1.141,12.12,12.12,0,0,0,.088-1.561,12.366,12.366,0,0,0-.084-1.343,4.941,4.941,0,0,0-.252-1.191,1.99,1.99,0,0,0-.558-.831,1.524,1.524,0,0,0-1.854.025,2.127,2.127,0,0,0-.549.847,4.64,4.64,0,0,0-.243,1.121,12.755,12.755,0,0,0-.067,1.338q0,.914.059,1.514a4.737,4.737,0,0,0,.285,1.2,1.911,1.911,0,0,0,.554.822,1.5,1.5,0,0,0,1.779.021A1.871,1.871,0,0,0,1973.86,2005.559Z" transform="translate(-1895.975 -1994.089)" fill="#929292"/><path d="M2056.412,1999.694h-1.845a2.641,2.641,0,0,1,.491.776,2.275,2.275,0,0,1,.164.851,2.051,2.051,0,0,1-.311,1.087,2.525,2.525,0,0,1-.814.827,4.284,4.284,0,0,1-1.2.512,5.759,5.759,0,0,1-1.493.185h-1.368a1.18,1.18,0,0,0-.222.241.535.535,0,0,0-.121.316.523.523,0,0,0,.293.516,2.857,2.857,0,0,0,1.066.16q.763.017,1.544.063t1.116.054a3.357,3.357,0,0,1,.965.2,2.95,2.95,0,0,1,.831.449,2.364,2.364,0,0,1,.638.751,2.149,2.149,0,0,1,.251,1.053,2.472,2.472,0,0,1-.306,1.2,2.742,2.742,0,0,1-.936.973,5.327,5.327,0,0,1-1.59.663,9.506,9.506,0,0,1-2.3.235,8.212,8.212,0,0,1-3.356-.537,1.722,1.722,0,0,1-1.149-1.611,1.281,1.281,0,0,1,.62-1.091,3.651,3.651,0,0,1,1.928-.47v-.1a3.042,3.042,0,0,1-1.2-.694,1.381,1.381,0,0,1-.431-1.005,1.009,1.009,0,0,1,.172-.6,1.729,1.729,0,0,1,.441-.429,2.352,2.352,0,0,1,.57-.273q.336-.114.563-.181v-.093a4.065,4.065,0,0,1-1.666-1.023,2.153,2.153,0,0,1-.533-1.477,2.253,2.253,0,0,1,1.137-1.972,5.193,5.193,0,0,1,2.882-.738,6.22,6.22,0,0,1,1.1.1q.532.1.809.172h3.255Zm-2.533,8.651a1.139,1.139,0,0,0-.159-.566,1.2,1.2,0,0,0-.712-.457,7.913,7.913,0,0,0-.992-.067q-.691-.017-1.9-.017a2.251,2.251,0,0,0-.49.6,1.645,1.645,0,0,0-.2.831,1.1,1.1,0,0,0,.117.462,1.426,1.426,0,0,0,.368.47,2.323,2.323,0,0,0,.653.382,3.221,3.221,0,0,0,1.089.138,2.753,2.753,0,0,0,1.65-.42A1.566,1.566,0,0,0,2053.878,2008.345Zm-1.4-7.057a3.249,3.249,0,0,0-.312-1.552,1.024,1.024,0,0,0-.959-.571,1.044,1.044,0,0,0-.573.156,1.131,1.131,0,0,0-.4.449,2.106,2.106,0,0,0-.194.667,6.023,6.023,0,0,0-.05.785,3.121,3.121,0,0,0,.32,1.5,1,1,0,0,0,.909.587,1.029,1.029,0,0,0,.93-.529A2.866,2.866,0,0,0,2052.477,2001.288Z" transform="translate(-1964.624 -1994.089)" fill="#929292"/><path d="M2126.9,1978.343h-5.3v-.613c.145-.011.288-.025.428-.042a1.489,1.489,0,0,0,.361-.084.7.7,0,0,0,.378-.289,1,1,0,0,0,.109-.5v-4.884a.979.979,0,0,0-.134-.516,1.116,1.116,0,0,0-.336-.357,1.78,1.78,0,0,0-.457-.193,3.009,3.009,0,0,0-.558-.117v-.613l4.111-.218.126.126v6.663a.941.941,0,0,0,.125.5.761.761,0,0,0,.361.306,2.8,2.8,0,0,0,.369.134,2.5,2.5,0,0,0,.42.084Zm-1.225-11.446a1.418,1.418,0,0,1-.49,1.086,1.74,1.74,0,0,1-2.333,0,1.452,1.452,0,0,1,0-2.177,1.734,1.734,0,0,1,2.337,0A1.438,1.438,0,0,1,2125.67,1966.9Z" transform="translate(-2029.292 -1965.354)" fill="#929292"/><path d="M2178.237,2005.073a5.11,5.11,0,0,1-.71.9,4.3,4.3,0,0,1-.944.726,5.186,5.186,0,0,1-1.137.482,4.827,4.827,0,0,1-1.322.164,5.874,5.874,0,0,1-2.144-.353,4.2,4.2,0,0,1-1.49-.948,3.8,3.8,0,0,1-.877-1.406,5.183,5.183,0,0,1-.29-1.758,4.41,4.41,0,0,1,1.208-3.037,4.284,4.284,0,0,1,1.439-.965,4.922,4.922,0,0,1,1.942-.369,5.537,5.537,0,0,1,1.93.285,3.419,3.419,0,0,1,1.25.789,2.87,2.87,0,0,1,.7,1.129,4.271,4.271,0,0,1,.218,1.364v.545h-5.672a4.369,4.369,0,0,0,.662,2.618,2.763,2.763,0,0,0,3.524.466,4.049,4.049,0,0,0,1.074-1.095Zm-3.206-3.188q0-.5-.05-1.032a3.448,3.448,0,0,0-.176-.864,1.332,1.332,0,0,0-.39-.6.961.961,0,0,0-.625-.2,1.162,1.162,0,0,0-1.032.655,4.44,4.44,0,0,0-.419,2.073Z" transform="translate(-2070.84 -1994.089)" fill="#929292"/><path d="M2246.559,2007.472a5.368,5.368,0,0,1-1.59-.239,5.21,5.21,0,0,1-1.2-.508l-.251.571h-.655l-.109-3.13h.612a4.142,4.142,0,0,0,.419.852,4.694,4.694,0,0,0,.671.852,3.8,3.8,0,0,0,.9.638,2.35,2.35,0,0,0,1.087.26,1.807,1.807,0,0,0,1.137-.3,1.106,1.106,0,0,0,.373-.919.879.879,0,0,0-.168-.553,1.429,1.429,0,0,0-.461-.378,4.274,4.274,0,0,0-.717-.285q-.39-.118-.961-.286a9.149,9.149,0,0,1-.977-.34,3.323,3.323,0,0,1-.843-.541,2.368,2.368,0,0,1-.831-1.888,2.268,2.268,0,0,1,.994-1.913,4.3,4.3,0,0,1,2.605-.73,5.974,5.974,0,0,1,1.406.155,7.106,7.106,0,0,1,1.078.34l.177-.495h.637l.134,2.861h-.587a3.475,3.475,0,0,0-1.007-1.506,2.276,2.276,0,0,0-1.536-.634,1.7,1.7,0,0,0-1.015.269.871.871,0,0,0-.369.747.967.967,0,0,0,.54.923,7.227,7.227,0,0,0,1.512.537,4.923,4.923,0,0,1,2.2,1.053,2.252,2.252,0,0,1,.7,1.7,2.452,2.452,0,0,1-1.078,2.131A4.812,4.812,0,0,1,2246.559,2007.472Z" transform="translate(-2134.473 -1994.197)" fill="#929292"/></g></g></svg>